<svg xmlns="http://www.w3.org/2000/svg" width="1177" height="119" viewBox="0 0 1177 119">
  <g id="Сгруппировать_10" data-name="Сгруппировать 10" transform="translate(-435 -256)">
    <g id="Прямоугольник_1" data-name="Прямоугольник 1" transform="translate(435 256)" fill="#151a40" stroke="#707070" stroke-width="1">
      <rect width="1177" height="119" stroke="none"/>
      <rect x="0.5" y="0.5" width="1176" height="118" fill="none"/>
    </g>
    <circle id="Эллипс_1" data-name="Эллипс 1" cx="33" cy="33" r="33" transform="translate(691 283)" fill="#fff"/>
    <circle id="Эллипс_2" data-name="Эллипс 2" cx="33" cy="33" r="33" transform="translate(837 283)" fill="#fff"/>
    <circle id="Эллипс_3" data-name="Эллипс 3" cx="33" cy="33" r="33" transform="translate(938 283)" fill="#fff"/>
    <path id="Контур_14" data-name="Контур 14" d="M-44.3-20.68V0h5.68V-12a5.845,5.845,0,0,1,.44-2.46,3.972,3.972,0,0,1,1.06-1.44,3.518,3.518,0,0,1,1.28-.68,4.256,4.256,0,0,1,1.06-.18,3.772,3.772,0,0,1,2.06.46,2.553,2.553,0,0,1,1,1.22,5.108,5.108,0,0,1,.34,1.66q.04.9.04,1.82V0h5.68V-11.52a12.88,12.88,0,0,1,.14-1.9,4.805,4.805,0,0,1,.56-1.68,3.333,3.333,0,0,1,1.16-1.2,3.633,3.633,0,0,1,1.94-.46,3.834,3.834,0,0,1,1.9.4,2.664,2.664,0,0,1,1.06,1.08,4.16,4.16,0,0,1,.44,1.6q.08.92.08,1.96V0h5.68V-13.84a9.327,9.327,0,0,0-.56-3.42,5.864,5.864,0,0,0-1.56-2.3,6.12,6.12,0,0,0-2.4-1.28,11.029,11.029,0,0,0-3.04-.4A6.647,6.647,0,0,0-24-20.2a8.8,8.8,0,0,0-2.5,2.4,5.03,5.03,0,0,0-2.46-2.68,8.324,8.324,0,0,0-3.58-.76,7.314,7.314,0,0,0-3.62.88,8.089,8.089,0,0,0-2.7,2.48h-.08v-2.8Zm35.84,6.36a6.6,6.6,0,0,1,1-3.32,6.81,6.81,0,0,1,2.24-2.12A9.761,9.761,0,0,1-2.16-20.9a17.4,17.4,0,0,1,3.42-.34,23.178,23.178,0,0,1,3.16.22,9.667,9.667,0,0,1,2.92.86A5.753,5.753,0,0,1,9.5-18.38a4.974,4.974,0,0,1,.84,3.02V-4.6a21.61,21.61,0,0,0,.16,2.68A4.845,4.845,0,0,0,11.06,0H5.3a8.151,8.151,0,0,1-.26-.98A8.533,8.533,0,0,1,4.9-2,7.4,7.4,0,0,1,1.7-.04,12.844,12.844,0,0,1-2.06.52,10.158,10.158,0,0,1-4.82.16,6.321,6.321,0,0,1-7.06-.96a5.214,5.214,0,0,1-1.5-1.92A6.492,6.492,0,0,1-9.1-5.64a6.03,6.03,0,0,1,.62-2.9,5.184,5.184,0,0,1,1.6-1.82,7.169,7.169,0,0,1,2.24-1.02,23.913,23.913,0,0,1,2.54-.54q1.28-.2,2.52-.32a15.154,15.154,0,0,0,2.2-.36,3.835,3.835,0,0,0,1.52-.7,1.536,1.536,0,0,0,.52-1.34,3.014,3.014,0,0,0-.3-1.46,2.206,2.206,0,0,0-.8-.84,3.147,3.147,0,0,0-1.16-.4,9.492,9.492,0,0,0-1.42-.1,4.311,4.311,0,0,0-2.64.72,3.214,3.214,0,0,0-1.12,2.4Zm13.12,4.2a2.548,2.548,0,0,1-.9.5,9.192,9.192,0,0,1-1.16.3q-.62.12-1.3.2t-1.36.2a10.258,10.258,0,0,0-1.26.32,3.725,3.725,0,0,0-1.08.54,2.567,2.567,0,0,0-.74.86,2.767,2.767,0,0,0-.28,1.32A2.672,2.672,0,0,0-3.14-4.6a2.147,2.147,0,0,0,.76.82,3.208,3.208,0,0,0,1.12.42,7.149,7.149,0,0,0,1.32.12,5.021,5.021,0,0,0,2.6-.56A3.746,3.746,0,0,0,4.02-5.14a4.285,4.285,0,0,0,.54-1.58A10.854,10.854,0,0,0,4.66-8ZM20.58-23.88v-4.68H14.9v4.68Zm-5.68,3.2V0h5.68V-20.68Zm10.16,0V0h5.68V-10.84a7.672,7.672,0,0,1,1.04-4.54,3.935,3.935,0,0,1,3.36-1.38,3.1,3.1,0,0,1,2.84,1.26,7.247,7.247,0,0,1,.8,3.82V0h5.68V-12.72a16.668,16.668,0,0,0-.34-3.5,6.656,6.656,0,0,0-1.18-2.68,5.545,5.545,0,0,0-2.3-1.72,9.647,9.647,0,0,0-3.74-.62,8.1,8.1,0,0,0-3.52.82,6.517,6.517,0,0,0-2.8,2.62h-.12v-2.88Z" transform="translate(595 330)" fill="#fff"/>
    <line id="Линия_1" data-name="Линия 1" x2="86" transform="translate(754.5 316.5)" fill="none" stroke="#fff" stroke-width="3"/>
    <line id="Линия_2" data-name="Линия 2" x2="86" transform="translate(901 316.5)" fill="none" stroke="#fff" stroke-width="3"/>
  </g>
</svg>
