<svg height="501" viewBox="0 0 1177 501" width="1177" xmlns="http://www.w3.org/2000/svg"><g transform="translate(-435 -1490)"><g fill="#151a40" stroke="#707070"><path d="m435 1490h1177v501h-1177z" stroke="none"/><path d="m435.5 1490.5h1176v500h-1176z" fill="none"/></g><circle cx="709" cy="1742" fill="#fff" r="33"/><circle cx="855" cy="1742" fill="#fff" r="33"/><circle cx="956" cy="1742" fill="#fff" r="33"/><circle cx="1104" cy="1742" fill="#fff" r="33"/><circle cx="1203" cy="1742" fill="#fff" r="33"/><circle cx="1364" cy="1742" fill="#fff" r="33"/><circle cx="1513" cy="1742" fill="#fff" r="33"/><path d="m-44.3-20.68v20.68h5.68v-12a5.845 5.845 0 0 1 .44-2.46 3.972 3.972 0 0 1 1.06-1.44 3.518 3.518 0 0 1 1.28-.68 4.256 4.256 0 0 1 1.06-.18 3.772 3.772 0 0 1 2.06.46 2.553 2.553 0 0 1 1 1.22 5.108 5.108 0 0 1 .34 1.66q.04.9.04 1.82v11.6h5.68v-11.52a12.88 12.88 0 0 1 .14-1.9 4.805 4.805 0 0 1 .56-1.68 3.333 3.333 0 0 1 1.16-1.2 3.633 3.633 0 0 1 1.94-.46 3.834 3.834 0 0 1 1.9.4 2.664 2.664 0 0 1 1.06 1.08 4.16 4.16 0 0 1 .44 1.6q.08.92.08 1.96v11.72h5.68v-13.84a9.327 9.327 0 0 0 -.56-3.42 5.864 5.864 0 0 0 -1.56-2.3 6.12 6.12 0 0 0 -2.4-1.28 11.029 11.029 0 0 0 -3.04-.4 6.647 6.647 0 0 0 -3.74 1.04 8.8 8.8 0 0 0 -2.5 2.4 5.03 5.03 0 0 0 -2.46-2.68 8.324 8.324 0 0 0 -3.58-.76 7.314 7.314 0 0 0 -3.62.88 8.089 8.089 0 0 0 -2.7 2.48h-.08v-2.8zm35.84 6.36a6.6 6.6 0 0 1 1-3.32 6.81 6.81 0 0 1 2.24-2.12 9.761 9.761 0 0 1 3.06-1.14 17.4 17.4 0 0 1 3.42-.34 23.178 23.178 0 0 1 3.16.22 9.667 9.667 0 0 1 2.92.86 5.753 5.753 0 0 1 2.16 1.78 4.974 4.974 0 0 1 .84 3.02v10.76a21.61 21.61 0 0 0 .16 2.68 4.845 4.845 0 0 0 .56 1.92h-5.76a8.151 8.151 0 0 1 -.26-.98 8.533 8.533 0 0 1 -.14-1.02 7.4 7.4 0 0 1 -3.2 1.96 12.844 12.844 0 0 1 -3.76.56 10.158 10.158 0 0 1 -2.76-.36 6.321 6.321 0 0 1 -2.24-1.12 5.214 5.214 0 0 1 -1.5-1.92 6.492 6.492 0 0 1 -.54-2.76 6.03 6.03 0 0 1 .62-2.9 5.184 5.184 0 0 1 1.6-1.82 7.169 7.169 0 0 1 2.24-1.02 23.913 23.913 0 0 1 2.54-.54q1.28-.2 2.52-.32a15.154 15.154 0 0 0 2.2-.36 3.835 3.835 0 0 0 1.52-.7 1.536 1.536 0 0 0 .52-1.34 3.014 3.014 0 0 0 -.3-1.46 2.206 2.206 0 0 0 -.8-.84 3.147 3.147 0 0 0 -1.16-.4 9.492 9.492 0 0 0 -1.42-.1 4.311 4.311 0 0 0 -2.64.72 3.214 3.214 0 0 0 -1.12 2.4zm13.12 4.2a2.548 2.548 0 0 1 -.9.5 9.192 9.192 0 0 1 -1.16.3q-.62.12-1.3.2t-1.36.2a10.258 10.258 0 0 0 -1.26.32 3.725 3.725 0 0 0 -1.08.54 2.567 2.567 0 0 0 -.74.86 2.767 2.767 0 0 0 -.28 1.32 2.672 2.672 0 0 0 .28 1.28 2.147 2.147 0 0 0 .76.82 3.208 3.208 0 0 0 1.12.42 7.149 7.149 0 0 0 1.32.12 5.021 5.021 0 0 0 2.6-.56 3.746 3.746 0 0 0 1.36-1.34 4.285 4.285 0 0 0 .54-1.58 10.854 10.854 0 0 0 .1-1.28zm15.92-13.76v-4.68h-5.68v4.68zm-5.68 3.2v20.68h5.68v-20.68zm10.16 0v20.68h5.68v-10.84a7.672 7.672 0 0 1 1.04-4.54 3.935 3.935 0 0 1 3.36-1.38 3.1 3.1 0 0 1 2.84 1.26 7.247 7.247 0 0 1 .8 3.82v11.68h5.68v-12.72a16.668 16.668 0 0 0 -.34-3.5 6.656 6.656 0 0 0 -1.18-2.68 5.545 5.545 0 0 0 -2.3-1.72 9.647 9.647 0 0 0 -3.74-.62 8.1 8.1 0 0 0 -3.52.82 6.517 6.517 0 0 0 -2.8 2.62h-.12v-2.88z" fill="#fff" transform="translate(580 1756)"/><path d="m-85.14-16.88v16.88h5.68v-16.88h3.92v-3.8h-3.92v-1.24a2.653 2.653 0 0 1 .5-1.82 2.179 2.179 0 0 1 1.66-.54 17.456 17.456 0 0 1 2.08.12v-4.24q-.72-.04-1.48-.1t-1.52-.06a6.969 6.969 0 0 0 -5.2 1.76 6.2 6.2 0 0 0 -1.72 4.52v1.6h-3.4v3.8zm26 4.32h-9.24a6.519 6.519 0 0 1 .26-1.36 4.176 4.176 0 0 1 .76-1.44 4.3 4.3 0 0 1 1.44-1.14 4.941 4.941 0 0 1 2.26-.46 3.989 3.989 0 0 1 3.1 1.12 6.565 6.565 0 0 1 1.42 3.28zm-9.24 3.6h14.92a14.6 14.6 0 0 0 -.4-4.6 11.259 11.259 0 0 0 -1.82-3.92 9.181 9.181 0 0 0 -3.22-2.74 9.833 9.833 0 0 0 -4.6-1.02 10.711 10.711 0 0 0 -4.3.84 10.167 10.167 0 0 0 -3.34 2.3 10.138 10.138 0 0 0 -2.16 3.46 12.061 12.061 0 0 0 -.76 4.32 12.591 12.591 0 0 0 .74 4.4 9.992 9.992 0 0 0 2.1 3.44 9.149 9.149 0 0 0 3.32 2.22 11.811 11.811 0 0 0 4.4.78 10.832 10.832 0 0 0 6-1.6 9.492 9.492 0 0 0 3.68-5.32h-5a3.568 3.568 0 0 1 -1.52 1.82 5.064 5.064 0 0 1 -2.96.86 5.078 5.078 0 0 1 -3.68-1.24 5.742 5.742 0 0 1 -1.4-4zm18.04-5.36a6.6 6.6 0 0 1 1-3.32 6.81 6.81 0 0 1 2.24-2.12 9.761 9.761 0 0 1 3.06-1.14 17.4 17.4 0 0 1 3.42-.34 23.178 23.178 0 0 1 3.16.22 9.667 9.667 0 0 1 2.92.86 5.753 5.753 0 0 1 2.16 1.78 4.974 4.974 0 0 1 .84 3.02v10.76a21.61 21.61 0 0 0 .16 2.68 4.845 4.845 0 0 0 .56 1.92h-5.76a8.151 8.151 0 0 1 -.26-.98 8.534 8.534 0 0 1 -.14-1.02 7.4 7.4 0 0 1 -3.2 1.96 12.844 12.844 0 0 1 -3.76.56 10.158 10.158 0 0 1 -2.76-.36 6.321 6.321 0 0 1 -2.24-1.12 5.214 5.214 0 0 1 -1.5-1.92 6.492 6.492 0 0 1 -.54-2.76 6.03 6.03 0 0 1 .62-2.9 5.184 5.184 0 0 1 1.6-1.82 7.169 7.169 0 0 1 2.24-1.02 23.913 23.913 0 0 1 2.54-.54q1.28-.2 2.52-.32a15.154 15.154 0 0 0 2.2-.36 3.835 3.835 0 0 0 1.52-.7 1.536 1.536 0 0 0 .52-1.34 3.014 3.014 0 0 0 -.3-1.46 2.206 2.206 0 0 0 -.8-.84 3.147 3.147 0 0 0 -1.16-.4 9.492 9.492 0 0 0 -1.42-.1 4.311 4.311 0 0 0 -2.64.72 3.214 3.214 0 0 0 -1.12 2.4zm13.12 4.2a2.548 2.548 0 0 1 -.9.5 9.192 9.192 0 0 1 -1.16.3q-.62.12-1.3.2t-1.36.2a10.258 10.258 0 0 0 -1.26.32 3.725 3.725 0 0 0 -1.08.54 2.567 2.567 0 0 0 -.74.86 2.767 2.767 0 0 0 -.28 1.32 2.672 2.672 0 0 0 .28 1.28 2.147 2.147 0 0 0 .76.82 3.208 3.208 0 0 0 1.12.42 7.149 7.149 0 0 0 1.32.12 5.021 5.021 0 0 0 2.6-.56 3.746 3.746 0 0 0 1.36-1.34 4.285 4.285 0 0 0 .54-1.58 10.853 10.853 0 0 0 .1-1.28zm17.28-10.56v-6.2h-5.68v6.2h-3.44v3.8h3.44v12.2a5.284 5.284 0 0 0 .52 2.52 3.706 3.706 0 0 0 1.42 1.48 5.9 5.9 0 0 0 2.08.7 16.582 16.582 0 0 0 2.5.18q.84 0 1.72-.04a13.516 13.516 0 0 0 1.6-.16v-4.4a7.957 7.957 0 0 1 -.84.12q-.44.04-.92.04a2.78 2.78 0 0 1 -1.92-.48 2.78 2.78 0 0 1 -.48-1.92v-10.24h4.16v-3.8zm26.28 20.68v-20.68h-5.68v10.84a7.672 7.672 0 0 1 -1.04 4.54 3.935 3.935 0 0 1 -3.36 1.38 3.1 3.1 0 0 1 -2.84-1.26 7.247 7.247 0 0 1 -.8-3.82v-11.68h-5.68v12.72a16.668 16.668 0 0 0 .34 3.5 6.656 6.656 0 0 0 1.18 2.68 5.4 5.4 0 0 0 2.3 1.7 9.935 9.935 0 0 0 3.74.6 8.264 8.264 0 0 0 3.52-.8 6.39 6.39 0 0 0 2.8-2.6h.12v2.88zm4.32-20.68v20.68h5.68v-9.32a11.43 11.43 0 0 1 .28-2.6 5.694 5.694 0 0 1 .94-2.1 4.572 4.572 0 0 1 1.74-1.42 6.051 6.051 0 0 1 2.64-.52 10.144 10.144 0 0 1 1.08.06q.56.06.96.14v-5.28a4.43 4.43 0 0 0 -1.24-.2 6.783 6.783 0 0 0 -2.08.32 7.622 7.622 0 0 0 -1.88.9 7.075 7.075 0 0 0 -1.56 1.4 6.985 6.985 0 0 0 -1.08 1.78h-.08v-3.84zm28.76 8.12h-9.24a6.52 6.52 0 0 1 .26-1.36 4.176 4.176 0 0 1 .76-1.44 4.3 4.3 0 0 1 1.44-1.14 4.941 4.941 0 0 1 2.26-.46 3.989 3.989 0 0 1 3.1 1.12 6.565 6.565 0 0 1 1.42 3.28zm-9.24 3.6h14.92a14.6 14.6 0 0 0 -.4-4.6 11.259 11.259 0 0 0 -1.82-3.92 9.181 9.181 0 0 0 -3.22-2.74 9.833 9.833 0 0 0 -4.6-1.02 10.711 10.711 0 0 0 -4.3.84 10.167 10.167 0 0 0 -3.34 2.3 10.138 10.138 0 0 0 -2.16 3.46 12.061 12.061 0 0 0 -.76 4.32 12.591 12.591 0 0 0 .74 4.4 9.992 9.992 0 0 0 2.1 3.44 9.149 9.149 0 0 0 3.32 2.22 11.811 11.811 0 0 0 4.4.78 10.832 10.832 0 0 0 6-1.6 9.492 9.492 0 0 0 3.68-5.32h-5a3.568 3.568 0 0 1 -1.52 1.82 5.064 5.064 0 0 1 -2.96.86 5.078 5.078 0 0 1 -3.68-1.24 5.742 5.742 0 0 1 -1.4-4zm16.12 11.92v2h20v-2zm35.68-2.96v-28h-4.52a6.182 6.182 0 0 1 -1 2.68 6.085 6.085 0 0 1 -1.86 1.74 7.461 7.461 0 0 1 -2.48.92 13.446 13.446 0 0 1 -2.86.22v4.28h7.04v18.16z" fill="#43bee5" transform="translate(546 1668)"/><path d="m-85.14-16.88v16.88h5.68v-16.88h3.92v-3.8h-3.92v-1.24a2.653 2.653 0 0 1 .5-1.82 2.179 2.179 0 0 1 1.66-.54 17.456 17.456 0 0 1 2.08.12v-4.24q-.72-.04-1.48-.1t-1.52-.06a6.969 6.969 0 0 0 -5.2 1.76 6.2 6.2 0 0 0 -1.72 4.52v1.6h-3.4v3.8zm26 4.32h-9.24a6.519 6.519 0 0 1 .26-1.36 4.176 4.176 0 0 1 .76-1.44 4.3 4.3 0 0 1 1.44-1.14 4.941 4.941 0 0 1 2.26-.46 3.989 3.989 0 0 1 3.1 1.12 6.565 6.565 0 0 1 1.42 3.28zm-9.24 3.6h14.92a14.6 14.6 0 0 0 -.4-4.6 11.259 11.259 0 0 0 -1.82-3.92 9.181 9.181 0 0 0 -3.22-2.74 9.833 9.833 0 0 0 -4.6-1.02 10.711 10.711 0 0 0 -4.3.84 10.167 10.167 0 0 0 -3.34 2.3 10.138 10.138 0 0 0 -2.16 3.46 12.061 12.061 0 0 0 -.76 4.32 12.591 12.591 0 0 0 .74 4.4 9.992 9.992 0 0 0 2.1 3.44 9.149 9.149 0 0 0 3.32 2.22 11.811 11.811 0 0 0 4.4.78 10.832 10.832 0 0 0 6-1.6 9.492 9.492 0 0 0 3.68-5.32h-5a3.568 3.568 0 0 1 -1.52 1.82 5.064 5.064 0 0 1 -2.96.86 5.078 5.078 0 0 1 -3.68-1.24 5.742 5.742 0 0 1 -1.4-4zm18.04-5.36a6.6 6.6 0 0 1 1-3.32 6.81 6.81 0 0 1 2.24-2.12 9.761 9.761 0 0 1 3.06-1.14 17.4 17.4 0 0 1 3.42-.34 23.178 23.178 0 0 1 3.16.22 9.667 9.667 0 0 1 2.92.86 5.753 5.753 0 0 1 2.16 1.78 4.974 4.974 0 0 1 .84 3.02v10.76a21.61 21.61 0 0 0 .16 2.68 4.845 4.845 0 0 0 .56 1.92h-5.76a8.151 8.151 0 0 1 -.26-.98 8.534 8.534 0 0 1 -.14-1.02 7.4 7.4 0 0 1 -3.2 1.96 12.844 12.844 0 0 1 -3.76.56 10.158 10.158 0 0 1 -2.76-.36 6.321 6.321 0 0 1 -2.24-1.12 5.214 5.214 0 0 1 -1.5-1.92 6.492 6.492 0 0 1 -.54-2.76 6.03 6.03 0 0 1 .62-2.9 5.184 5.184 0 0 1 1.6-1.82 7.169 7.169 0 0 1 2.24-1.02 23.913 23.913 0 0 1 2.54-.54q1.28-.2 2.52-.32a15.154 15.154 0 0 0 2.2-.36 3.835 3.835 0 0 0 1.52-.7 1.536 1.536 0 0 0 .52-1.34 3.014 3.014 0 0 0 -.3-1.46 2.206 2.206 0 0 0 -.8-.84 3.147 3.147 0 0 0 -1.16-.4 9.492 9.492 0 0 0 -1.42-.1 4.311 4.311 0 0 0 -2.64.72 3.214 3.214 0 0 0 -1.12 2.4zm13.12 4.2a2.548 2.548 0 0 1 -.9.5 9.192 9.192 0 0 1 -1.16.3q-.62.12-1.3.2t-1.36.2a10.258 10.258 0 0 0 -1.26.32 3.725 3.725 0 0 0 -1.08.54 2.567 2.567 0 0 0 -.74.86 2.767 2.767 0 0 0 -.28 1.32 2.672 2.672 0 0 0 .28 1.28 2.147 2.147 0 0 0 .76.82 3.208 3.208 0 0 0 1.12.42 7.149 7.149 0 0 0 1.32.12 5.021 5.021 0 0 0 2.6-.56 3.746 3.746 0 0 0 1.36-1.34 4.285 4.285 0 0 0 .54-1.58 10.853 10.853 0 0 0 .1-1.28zm17.28-10.56v-6.2h-5.68v6.2h-3.44v3.8h3.44v12.2a5.284 5.284 0 0 0 .52 2.52 3.706 3.706 0 0 0 1.42 1.48 5.9 5.9 0 0 0 2.08.7 16.582 16.582 0 0 0 2.5.18q.84 0 1.72-.04a13.516 13.516 0 0 0 1.6-.16v-4.4a7.957 7.957 0 0 1 -.84.12q-.44.04-.92.04a2.78 2.78 0 0 1 -1.92-.48 2.78 2.78 0 0 1 -.48-1.92v-10.24h4.16v-3.8zm26.28 20.68v-20.68h-5.68v10.84a7.672 7.672 0 0 1 -1.04 4.54 3.935 3.935 0 0 1 -3.36 1.38 3.1 3.1 0 0 1 -2.84-1.26 7.247 7.247 0 0 1 -.8-3.82v-11.68h-5.68v12.72a16.668 16.668 0 0 0 .34 3.5 6.656 6.656 0 0 0 1.18 2.68 5.4 5.4 0 0 0 2.3 1.7 9.935 9.935 0 0 0 3.74.6 8.264 8.264 0 0 0 3.52-.8 6.39 6.39 0 0 0 2.8-2.6h.12v2.88zm4.32-20.68v20.68h5.68v-9.32a11.43 11.43 0 0 1 .28-2.6 5.694 5.694 0 0 1 .94-2.1 4.572 4.572 0 0 1 1.74-1.42 6.051 6.051 0 0 1 2.64-.52 10.144 10.144 0 0 1 1.08.06q.56.06.96.14v-5.28a4.43 4.43 0 0 0 -1.24-.2 6.783 6.783 0 0 0 -2.08.32 7.622 7.622 0 0 0 -1.88.9 7.075 7.075 0 0 0 -1.56 1.4 6.985 6.985 0 0 0 -1.08 1.78h-.08v-3.84zm28.76 8.12h-9.24a6.52 6.52 0 0 1 .26-1.36 4.176 4.176 0 0 1 .76-1.44 4.3 4.3 0 0 1 1.44-1.14 4.941 4.941 0 0 1 2.26-.46 3.989 3.989 0 0 1 3.1 1.12 6.565 6.565 0 0 1 1.42 3.28zm-9.24 3.6h14.92a14.6 14.6 0 0 0 -.4-4.6 11.259 11.259 0 0 0 -1.82-3.92 9.181 9.181 0 0 0 -3.22-2.74 9.833 9.833 0 0 0 -4.6-1.02 10.711 10.711 0 0 0 -4.3.84 10.167 10.167 0 0 0 -3.34 2.3 10.138 10.138 0 0 0 -2.16 3.46 12.061 12.061 0 0 0 -.76 4.32 12.591 12.591 0 0 0 .74 4.4 9.992 9.992 0 0 0 2.1 3.44 9.149 9.149 0 0 0 3.32 2.22 11.811 11.811 0 0 0 4.4.78 10.832 10.832 0 0 0 6-1.6 9.492 9.492 0 0 0 3.68-5.32h-5a3.568 3.568 0 0 1 -1.52 1.82 5.064 5.064 0 0 1 -2.96.86 5.078 5.078 0 0 1 -3.68-1.24 5.742 5.742 0 0 1 -1.4-4zm16.12 11.92v2h20v-2zm21.48-20.2h5.44a11.9 11.9 0 0 1 .22-2.26 7.01 7.01 0 0 1 .74-2.08 4.33 4.33 0 0 1 1.38-1.52 3.669 3.669 0 0 1 2.1-.58 4.167 4.167 0 0 1 3.02 1.14 4.215 4.215 0 0 1 1.18 3.18 4.461 4.461 0 0 1 -.58 2.28 7.775 7.775 0 0 1 -1.44 1.8 13.034 13.034 0 0 1 -1.9 1.46q-1.04.66-1.96 1.3-1.8 1.24-3.42 2.44a16.621 16.621 0 0 0 -2.82 2.62 11.282 11.282 0 0 0 -1.9 3.22 11.674 11.674 0 0 0 -.7 4.24h20.56v-4.88h-13.24a12.675 12.675 0 0 1 2.4-2.52q1.36-1.08 2.8-2.02t2.86-1.9a15.3 15.3 0 0 0 2.54-2.14 9.561 9.561 0 0 0 1.8-2.7 8.869 8.869 0 0 0 .68-3.64 8.462 8.462 0 0 0 -.78-3.68 8.168 8.168 0 0 0 -2.1-2.76 9.428 9.428 0 0 0 -3.06-1.72 11.148 11.148 0 0 0 -3.66-.6 10.908 10.908 0 0 0 -4.46.86 8.7 8.7 0 0 0 -3.22 2.4 10.38 10.38 0 0 0 -1.92 3.6 13.435 13.435 0 0 0 -.56 4.46z" fill="#41b853" transform="translate(546 1580)"/><path d="m-73.04-28.56v28.56h5.68v-10.84a7.672 7.672 0 0 1 1.04-4.54 3.935 3.935 0 0 1 3.36-1.38 3.1 3.1 0 0 1 2.84 1.26 7.247 7.247 0 0 1 .8 3.82v11.68h5.68v-12.72a16.668 16.668 0 0 0 -.34-3.5 6.656 6.656 0 0 0 -1.18-2.68 5.545 5.545 0 0 0 -2.3-1.72 9.647 9.647 0 0 0 -3.74-.62 7.449 7.449 0 0 0 -3.28.82 6.577 6.577 0 0 0 -2.76 2.62h-.12v-10.76zm28.76 18.24a12.411 12.411 0 0 1 .24-2.44 6.225 6.225 0 0 1 .82-2.12 4.606 4.606 0 0 1 1.54-1.5 4.571 4.571 0 0 1 2.4-.58 4.679 4.679 0 0 1 2.42.58 4.548 4.548 0 0 1 1.56 1.5 6.225 6.225 0 0 1 .82 2.12 12.411 12.411 0 0 1 .24 2.44 12.112 12.112 0 0 1 -.24 2.42 6.447 6.447 0 0 1 -.82 2.12 4.318 4.318 0 0 1 -1.56 1.5 4.813 4.813 0 0 1 -2.42.56 4.7 4.7 0 0 1 -2.4-.56 4.367 4.367 0 0 1 -1.54-1.5 6.447 6.447 0 0 1 -.82-2.12 12.112 12.112 0 0 1 -.24-2.42zm-5.68 0a12.531 12.531 0 0 0 .76 4.48 9.719 9.719 0 0 0 2.16 3.42 9.449 9.449 0 0 0 3.36 2.18 12.088 12.088 0 0 0 4.4.76 12.249 12.249 0 0 0 4.42-.76 9.414 9.414 0 0 0 3.38-2.18 9.718 9.718 0 0 0 2.16-3.42 12.531 12.531 0 0 0 .76-4.48 12.7 12.7 0 0 0 -.76-4.5 9.684 9.684 0 0 0 -2.16-3.44 9.64 9.64 0 0 0 -3.38-2.2 11.968 11.968 0 0 0 -4.42-.78 11.811 11.811 0 0 0 -4.4.78 9.679 9.679 0 0 0 -3.36 2.2 9.684 9.684 0 0 0 -2.16 3.44 12.7 12.7 0 0 0 -.76 4.5zm32.28-10.36v-6.2h-5.68v6.2h-3.44v3.8h3.44v12.2a5.284 5.284 0 0 0 .52 2.52 3.706 3.706 0 0 0 1.42 1.48 5.9 5.9 0 0 0 2.08.7 16.582 16.582 0 0 0 2.5.18q.84 0 1.72-.04a13.516 13.516 0 0 0 1.6-.16v-4.4a7.957 7.957 0 0 1 -.84.12q-.44.04-.92.04a2.78 2.78 0 0 1 -1.92-.48 2.78 2.78 0 0 1 -.48-1.92v-10.24h4.16v-3.8zm8.12 3.8v16.88h5.68v-16.88h3.92v-3.8h-3.92v-1.24a2.653 2.653 0 0 1 .5-1.82 2.179 2.179 0 0 1 1.66-.54 17.456 17.456 0 0 1 2.08.12v-4.24q-.72-.04-1.48-.1t-1.52-.06a6.969 6.969 0 0 0 -5.2 1.76 6.2 6.2 0 0 0 -1.72 4.52v1.6h-3.4v3.8zm13.04-3.8v20.68h5.68v-20.68zm5.68-3.2v-4.68h-5.68v4.68zm9.76 13-7.44 10.88h6.36l4.32-6.52 4.32 6.52h6.48l-7.64-11 6.8-9.68h-6.28l-3.6 5.4-3.64-5.4h-6.48zm14.04 13.84v2h20v-2zm35.68-2.96v-28h-4.52a6.182 6.182 0 0 1 -1 2.68 6.085 6.085 0 0 1 -1.86 1.74 7.46 7.46 0 0 1 -2.48.92 13.446 13.446 0 0 1 -2.86.22v4.28h7.04v18.16z" fill="#f40258" transform="translate(552 1844)"/><path d="m-73.04-28.56v28.56h5.68v-10.84a7.672 7.672 0 0 1 1.04-4.54 3.935 3.935 0 0 1 3.36-1.38 3.1 3.1 0 0 1 2.84 1.26 7.247 7.247 0 0 1 .8 3.82v11.68h5.68v-12.72a16.668 16.668 0 0 0 -.34-3.5 6.656 6.656 0 0 0 -1.18-2.68 5.545 5.545 0 0 0 -2.3-1.72 9.647 9.647 0 0 0 -3.74-.62 7.449 7.449 0 0 0 -3.28.82 6.577 6.577 0 0 0 -2.76 2.62h-.12v-10.76zm28.76 18.24a12.411 12.411 0 0 1 .24-2.44 6.225 6.225 0 0 1 .82-2.12 4.606 4.606 0 0 1 1.54-1.5 4.571 4.571 0 0 1 2.4-.58 4.679 4.679 0 0 1 2.42.58 4.548 4.548 0 0 1 1.56 1.5 6.225 6.225 0 0 1 .82 2.12 12.411 12.411 0 0 1 .24 2.44 12.112 12.112 0 0 1 -.24 2.42 6.447 6.447 0 0 1 -.82 2.12 4.318 4.318 0 0 1 -1.56 1.5 4.813 4.813 0 0 1 -2.42.56 4.7 4.7 0 0 1 -2.4-.56 4.367 4.367 0 0 1 -1.54-1.5 6.447 6.447 0 0 1 -.82-2.12 12.112 12.112 0 0 1 -.24-2.42zm-5.68 0a12.531 12.531 0 0 0 .76 4.48 9.719 9.719 0 0 0 2.16 3.42 9.449 9.449 0 0 0 3.36 2.18 12.088 12.088 0 0 0 4.4.76 12.249 12.249 0 0 0 4.42-.76 9.414 9.414 0 0 0 3.38-2.18 9.718 9.718 0 0 0 2.16-3.42 12.531 12.531 0 0 0 .76-4.48 12.7 12.7 0 0 0 -.76-4.5 9.684 9.684 0 0 0 -2.16-3.44 9.64 9.64 0 0 0 -3.38-2.2 11.968 11.968 0 0 0 -4.42-.78 11.811 11.811 0 0 0 -4.4.78 9.679 9.679 0 0 0 -3.36 2.2 9.684 9.684 0 0 0 -2.16 3.44 12.7 12.7 0 0 0 -.76 4.5zm32.28-10.36v-6.2h-5.68v6.2h-3.44v3.8h3.44v12.2a5.284 5.284 0 0 0 .52 2.52 3.706 3.706 0 0 0 1.42 1.48 5.9 5.9 0 0 0 2.08.7 16.582 16.582 0 0 0 2.5.18q.84 0 1.72-.04a13.516 13.516 0 0 0 1.6-.16v-4.4a7.957 7.957 0 0 1 -.84.12q-.44.04-.92.04a2.78 2.78 0 0 1 -1.92-.48 2.78 2.78 0 0 1 -.48-1.92v-10.24h4.16v-3.8zm8.12 3.8v16.88h5.68v-16.88h3.92v-3.8h-3.92v-1.24a2.653 2.653 0 0 1 .5-1.82 2.179 2.179 0 0 1 1.66-.54 17.456 17.456 0 0 1 2.08.12v-4.24q-.72-.04-1.48-.1t-1.52-.06a6.969 6.969 0 0 0 -5.2 1.76 6.2 6.2 0 0 0 -1.72 4.52v1.6h-3.4v3.8zm13.04-3.8v20.68h5.68v-20.68zm5.68-3.2v-4.68h-5.68v4.68zm9.76 13-7.44 10.88h6.36l4.32-6.52 4.32 6.52h6.48l-7.64-11 6.8-9.68h-6.28l-3.6 5.4-3.64-5.4h-6.48zm14.04 13.84v2h20v-2zm21.48-20.2h5.44a11.9 11.9 0 0 1 .22-2.26 7.01 7.01 0 0 1 .74-2.08 4.33 4.33 0 0 1 1.38-1.52 3.669 3.669 0 0 1 2.1-.58 4.167 4.167 0 0 1 3.02 1.14 4.215 4.215 0 0 1 1.18 3.18 4.461 4.461 0 0 1 -.58 2.28 7.775 7.775 0 0 1 -1.44 1.8 13.034 13.034 0 0 1 -1.9 1.46q-1.04.66-1.96 1.3-1.8 1.24-3.42 2.44a16.621 16.621 0 0 0 -2.82 2.62 11.282 11.282 0 0 0 -1.9 3.22 11.674 11.674 0 0 0 -.7 4.24h20.56v-4.88h-13.24a12.675 12.675 0 0 1 2.4-2.52q1.36-1.08 2.8-2.02t2.86-1.9a15.3 15.3 0 0 0 2.54-2.14 9.561 9.561 0 0 0 1.8-2.7 8.869 8.869 0 0 0 .68-3.64 8.462 8.462 0 0 0 -.78-3.68 8.168 8.168 0 0 0 -2.1-2.76 9.428 9.428 0 0 0 -3.06-1.72 11.148 11.148 0 0 0 -3.66-.6 10.908 10.908 0 0 0 -4.46.86 8.7 8.7 0 0 0 -3.22 2.4 10.38 10.38 0 0 0 -1.92 3.6 13.435 13.435 0 0 0 -.56 4.46z" fill="#efa500" transform="translate(552 1932)"/><g fill="none" stroke="#fff" stroke-width="3"><path d="m739.5 1742.5h86"/><path d="m886 1742.5h86"/><path d="m888 1575.289h86"/><path d="m1031 1575.289h148.5"/><path d="m1215.5 1575.289h124"/><path d="m985 1742.5h99.5"/><path d="m1380.432 1742.5h99.5"/><path d="m1121 1742.5h99.5"/><path d="m1231.932 1742.5h99.5"/><path d="m1117 1662h99.5"/><path d="m1004 629.5s34.254 6.369 34.254-41.708 32.178-39.18 32.178-39.18" transform="translate(-15 1113)"/><path d="m1070.432 629.5s-33.843-.445-34.254-41.708-32.178-39.18-32.178-39.18" transform="translate(-264.5 1193.906)"/><path d="m1004 629.5s33.843-.445 34.254-41.708 32.178-39.18 32.178-39.18" transform="translate(-135.5 1193.906)"/><path d="m1004 715.389s34.254-.576 34.254-85.642 32.178-80.451 32.178-80.451" transform="translate(-238 1026.037)"/><path d="m1004 715.389s34.254-.576 34.254-85.642 32.178-80.451 32.178-80.451" transform="translate(101.25 1193.528)"/><path d="m1070.432 715.389s-34.254-.576-34.254-85.642-32.178-80.447-32.178-80.447" transform="translate(-6.216 1193.528)"/><path d="m1070.432 715.389s-34.254-.576-34.254-85.642-32.178-80.447-32.178-80.447" transform="translate(360 1026.037)"/><path d="m1070.432 629.5s-34.254 6.369-34.254-41.708-32.178-39.18-32.178-39.18" transform="translate(261 1113)"/></g><circle cx="1088" cy="1662" fill="#43bee5" r="33"/><circle cx="862" cy="1574" fill="#41b853" r="33"/><circle cx="838" cy="1829" fill="#f40258" r="33"/><circle cx="1084" cy="1908" fill="#efa500" r="33"/><circle cx="1002" cy="1574" fill="#41b853" r="33"/><circle cx="1199" cy="1574" fill="#41b853" r="33"/><circle cx="1339" cy="1574" fill="#41b853" r="33"/><circle cx="1243" cy="1662" fill="#43bee5" r="33"/></g></svg>