<svg xmlns="http://www.w3.org/2000/svg" width="1177" height="212" viewBox="0 0 1177 212">
  <g id="Сгруппировать_12" data-name="Сгруппировать 12" transform="translate(-435 -814)">
    <g id="Прямоугольник_4" data-name="Прямоугольник 4" transform="translate(435 814)" fill="#151a40" stroke="#707070" stroke-width="1">
      <rect width="1177" height="212" stroke="none"/>
      <rect x="0.5" y="0.5" width="1176" height="211" fill="none"/>
    </g>
    <circle id="Эллипс_11" data-name="Эллипс 11" cx="33" cy="33" r="33" transform="translate(691 934)" fill="#fff"/>
    <circle id="Эллипс_12" data-name="Эллипс 12" cx="33" cy="33" r="33" transform="translate(837 934)" fill="#fff"/>
    <circle id="Эллипс_13" data-name="Эллипс 13" cx="33" cy="33" r="33" transform="translate(938 934)" fill="#fff"/>
    <circle id="Эллипс_15" data-name="Эллипс 15" cx="33" cy="33" r="33" transform="translate(1086 934)" fill="#fff"/>
    <circle id="Эллипс_16" data-name="Эллипс 16" cx="33" cy="33" r="33" transform="translate(1185 934)" fill="#fff"/>
    <path id="Контур_18" data-name="Контур 18" d="M-44.3-20.68V0h5.68V-12a5.845,5.845,0,0,1,.44-2.46,3.972,3.972,0,0,1,1.06-1.44,3.518,3.518,0,0,1,1.28-.68,4.256,4.256,0,0,1,1.06-.18,3.772,3.772,0,0,1,2.06.46,2.553,2.553,0,0,1,1,1.22,5.108,5.108,0,0,1,.34,1.66q.04.9.04,1.82V0h5.68V-11.52a12.88,12.88,0,0,1,.14-1.9,4.805,4.805,0,0,1,.56-1.68,3.333,3.333,0,0,1,1.16-1.2,3.633,3.633,0,0,1,1.94-.46,3.834,3.834,0,0,1,1.9.4,2.664,2.664,0,0,1,1.06,1.08,4.16,4.16,0,0,1,.44,1.6q.08.92.08,1.96V0h5.68V-13.84a9.327,9.327,0,0,0-.56-3.42,5.864,5.864,0,0,0-1.56-2.3,6.12,6.12,0,0,0-2.4-1.28,11.029,11.029,0,0,0-3.04-.4A6.647,6.647,0,0,0-24-20.2a8.8,8.8,0,0,0-2.5,2.4,5.03,5.03,0,0,0-2.46-2.68,8.324,8.324,0,0,0-3.58-.76,7.314,7.314,0,0,0-3.62.88,8.089,8.089,0,0,0-2.7,2.48h-.08v-2.8Zm35.84,6.36a6.6,6.6,0,0,1,1-3.32,6.81,6.81,0,0,1,2.24-2.12A9.761,9.761,0,0,1-2.16-20.9a17.4,17.4,0,0,1,3.42-.34,23.178,23.178,0,0,1,3.16.22,9.667,9.667,0,0,1,2.92.86A5.753,5.753,0,0,1,9.5-18.38a4.974,4.974,0,0,1,.84,3.02V-4.6a21.61,21.61,0,0,0,.16,2.68A4.845,4.845,0,0,0,11.06,0H5.3a8.151,8.151,0,0,1-.26-.98A8.533,8.533,0,0,1,4.9-2,7.4,7.4,0,0,1,1.7-.04,12.844,12.844,0,0,1-2.06.52,10.158,10.158,0,0,1-4.82.16,6.321,6.321,0,0,1-7.06-.96a5.214,5.214,0,0,1-1.5-1.92A6.492,6.492,0,0,1-9.1-5.64a6.03,6.03,0,0,1,.62-2.9,5.184,5.184,0,0,1,1.6-1.82,7.169,7.169,0,0,1,2.24-1.02,23.913,23.913,0,0,1,2.54-.54q1.28-.2,2.52-.32a15.154,15.154,0,0,0,2.2-.36,3.835,3.835,0,0,0,1.52-.7,1.536,1.536,0,0,0,.52-1.34,3.014,3.014,0,0,0-.3-1.46,2.206,2.206,0,0,0-.8-.84,3.147,3.147,0,0,0-1.16-.4,9.492,9.492,0,0,0-1.42-.1,4.311,4.311,0,0,0-2.64.72,3.214,3.214,0,0,0-1.12,2.4Zm13.12,4.2a2.548,2.548,0,0,1-.9.5,9.192,9.192,0,0,1-1.16.3q-.62.12-1.3.2t-1.36.2a10.258,10.258,0,0,0-1.26.32,3.725,3.725,0,0,0-1.08.54,2.567,2.567,0,0,0-.74.86,2.767,2.767,0,0,0-.28,1.32A2.672,2.672,0,0,0-3.14-4.6a2.147,2.147,0,0,0,.76.82,3.208,3.208,0,0,0,1.12.42,7.149,7.149,0,0,0,1.32.12,5.021,5.021,0,0,0,2.6-.56A3.746,3.746,0,0,0,4.02-5.14a4.285,4.285,0,0,0,.54-1.58A10.854,10.854,0,0,0,4.66-8ZM20.58-23.88v-4.68H14.9v4.68Zm-5.68,3.2V0h5.68V-20.68Zm10.16,0V0h5.68V-10.84a7.672,7.672,0,0,1,1.04-4.54,3.935,3.935,0,0,1,3.36-1.38,3.1,3.1,0,0,1,2.84,1.26,7.247,7.247,0,0,1,.8,3.82V0h5.68V-12.72a16.668,16.668,0,0,0-.34-3.5,6.656,6.656,0,0,0-1.18-2.68,5.545,5.545,0,0,0-2.3-1.72,9.647,9.647,0,0,0-3.74-.62,8.1,8.1,0,0,0-3.52.82,6.517,6.517,0,0,0-2.8,2.62h-.12v-2.88Z" transform="translate(595 981)" fill="#fff"/>
    <path id="Контур_17" data-name="Контур 17" d="M-85.14-16.88V0h5.68V-16.88h3.92v-3.8h-3.92v-1.24a2.653,2.653,0,0,1,.5-1.82,2.179,2.179,0,0,1,1.66-.54,17.456,17.456,0,0,1,2.08.12V-28.4q-.72-.04-1.48-.1t-1.52-.06a6.969,6.969,0,0,0-5.2,1.76,6.2,6.2,0,0,0-1.72,4.52v1.6h-3.4v3.8Zm26,4.32h-9.24a6.519,6.519,0,0,1,.26-1.36,4.176,4.176,0,0,1,.76-1.44,4.3,4.3,0,0,1,1.44-1.14,4.941,4.941,0,0,1,2.26-.46,3.989,3.989,0,0,1,3.1,1.12A6.565,6.565,0,0,1-59.14-12.56Zm-9.24,3.6h14.92a14.6,14.6,0,0,0-.4-4.6,11.259,11.259,0,0,0-1.82-3.92,9.181,9.181,0,0,0-3.22-2.74,9.833,9.833,0,0,0-4.6-1.02,10.711,10.711,0,0,0-4.3.84,10.167,10.167,0,0,0-3.34,2.3,10.138,10.138,0,0,0-2.16,3.46,12.061,12.061,0,0,0-.76,4.32,12.591,12.591,0,0,0,.74,4.4,9.992,9.992,0,0,0,2.1,3.44A9.149,9.149,0,0,0-67.9-.26a11.811,11.811,0,0,0,4.4.78,10.832,10.832,0,0,0,6-1.6A9.492,9.492,0,0,0-53.82-6.4h-5a3.568,3.568,0,0,1-1.52,1.82,5.064,5.064,0,0,1-2.96.86,5.078,5.078,0,0,1-3.68-1.24A5.742,5.742,0,0,1-68.38-8.96Zm18.04-5.36a6.6,6.6,0,0,1,1-3.32,6.81,6.81,0,0,1,2.24-2.12,9.761,9.761,0,0,1,3.06-1.14,17.4,17.4,0,0,1,3.42-.34,23.178,23.178,0,0,1,3.16.22,9.667,9.667,0,0,1,2.92.86,5.753,5.753,0,0,1,2.16,1.78,4.974,4.974,0,0,1,.84,3.02V-4.6a21.61,21.61,0,0,0,.16,2.68A4.845,4.845,0,0,0-30.82,0h-5.76a8.151,8.151,0,0,1-.26-.98A8.534,8.534,0,0,1-36.98-2a7.4,7.4,0,0,1-3.2,1.96,12.844,12.844,0,0,1-3.76.56A10.158,10.158,0,0,1-46.7.16,6.321,6.321,0,0,1-48.94-.96a5.214,5.214,0,0,1-1.5-1.92,6.492,6.492,0,0,1-.54-2.76,6.03,6.03,0,0,1,.62-2.9,5.184,5.184,0,0,1,1.6-1.82,7.169,7.169,0,0,1,2.24-1.02,23.913,23.913,0,0,1,2.54-.54q1.28-.2,2.52-.32a15.154,15.154,0,0,0,2.2-.36,3.835,3.835,0,0,0,1.52-.7,1.536,1.536,0,0,0,.52-1.34,3.014,3.014,0,0,0-.3-1.46,2.206,2.206,0,0,0-.8-.84,3.147,3.147,0,0,0-1.16-.4,9.492,9.492,0,0,0-1.42-.1,4.311,4.311,0,0,0-2.64.72,3.214,3.214,0,0,0-1.12,2.4Zm13.12,4.2a2.548,2.548,0,0,1-.9.5,9.192,9.192,0,0,1-1.16.3q-.62.12-1.3.2t-1.36.2a10.258,10.258,0,0,0-1.26.32,3.725,3.725,0,0,0-1.08.54,2.567,2.567,0,0,0-.74.86,2.767,2.767,0,0,0-.28,1.32,2.672,2.672,0,0,0,.28,1.28,2.147,2.147,0,0,0,.76.82,3.208,3.208,0,0,0,1.12.42,7.149,7.149,0,0,0,1.32.12,5.021,5.021,0,0,0,2.6-.56,3.746,3.746,0,0,0,1.36-1.34,4.285,4.285,0,0,0,.54-1.58A10.853,10.853,0,0,0-37.22-8Zm17.28-10.56v-6.2h-5.68v6.2h-3.44v3.8h3.44v12.2a5.284,5.284,0,0,0,.52,2.52A3.706,3.706,0,0,0-23.68-.68a5.9,5.9,0,0,0,2.08.7A16.582,16.582,0,0,0-19.1.2q.84,0,1.72-.04A13.516,13.516,0,0,0-15.78,0V-4.4a7.957,7.957,0,0,1-.84.12q-.44.04-.92.04a2.78,2.78,0,0,1-1.92-.48,2.78,2.78,0,0,1-.48-1.92V-16.88h4.16v-3.8ZM6.34,0V-20.68H.66V-9.84A7.672,7.672,0,0,1-.38-5.3,3.935,3.935,0,0,1-3.74-3.92,3.1,3.1,0,0,1-6.58-5.18,7.247,7.247,0,0,1-7.38-9V-20.68h-5.68V-7.96a16.668,16.668,0,0,0,.34,3.5,6.656,6.656,0,0,0,1.18,2.68,5.4,5.4,0,0,0,2.3,1.7A9.935,9.935,0,0,0-5.5.52a8.264,8.264,0,0,0,3.52-.8,6.39,6.39,0,0,0,2.8-2.6H.94V0Zm4.32-20.68V0h5.68V-9.32a11.43,11.43,0,0,1,.28-2.6,5.694,5.694,0,0,1,.94-2.1,4.572,4.572,0,0,1,1.74-1.42,6.051,6.051,0,0,1,2.64-.52,10.144,10.144,0,0,1,1.08.06q.56.06.96.14v-5.28a4.43,4.43,0,0,0-1.24-.2,6.783,6.783,0,0,0-2.08.32,7.622,7.622,0,0,0-1.88.9,7.075,7.075,0,0,0-1.56,1.4,6.985,6.985,0,0,0-1.08,1.78h-.08v-3.84Zm28.76,8.12H30.18a6.52,6.52,0,0,1,.26-1.36,4.176,4.176,0,0,1,.76-1.44,4.3,4.3,0,0,1,1.44-1.14,4.941,4.941,0,0,1,2.26-.46A3.989,3.989,0,0,1,38-15.84,6.565,6.565,0,0,1,39.42-12.56Zm-9.24,3.6H45.1a14.6,14.6,0,0,0-.4-4.6,11.259,11.259,0,0,0-1.82-3.92,9.181,9.181,0,0,0-3.22-2.74,9.833,9.833,0,0,0-4.6-1.02,10.711,10.711,0,0,0-4.3.84,10.167,10.167,0,0,0-3.34,2.3,10.138,10.138,0,0,0-2.16,3.46,12.061,12.061,0,0,0-.76,4.32,12.591,12.591,0,0,0,.74,4.4,9.992,9.992,0,0,0,2.1,3.44A9.149,9.149,0,0,0,30.66-.26a11.811,11.811,0,0,0,4.4.78,10.832,10.832,0,0,0,6-1.6A9.492,9.492,0,0,0,44.74-6.4h-5a3.568,3.568,0,0,1-1.52,1.82,5.064,5.064,0,0,1-2.96.86,5.078,5.078,0,0,1-3.68-1.24A5.742,5.742,0,0,1,30.18-8.96ZM46.3,2.96v2h20v-2ZM81.98,0V-28H77.46a6.182,6.182,0,0,1-1,2.68,6.085,6.085,0,0,1-1.86,1.74,7.461,7.461,0,0,1-2.48.92,13.446,13.446,0,0,1-2.86.22v4.28H76.3V0Z" transform="translate(561 893)" fill="#43bee5"/>
    <line id="Линия_7" data-name="Линия 7" x2="86" transform="translate(754.5 967.5)" fill="none" stroke="#fff" stroke-width="3"/>
    <line id="Линия_8" data-name="Линия 8" x2="86" transform="translate(901 967.5)" fill="none" stroke="#fff" stroke-width="3"/>
    <line id="Линия_9" data-name="Линия 9" x2="99.5" transform="translate(1000 967.5)" fill="none" stroke="#fff" stroke-width="3"/>
    <line id="Линия_10" data-name="Линия 10" x2="99.5" transform="translate(1136 967.5)" fill="none" stroke="#fff" stroke-width="3"/>
    <line id="Линия_11" data-name="Линия 11" x2="99.5" transform="translate(1132 887)" fill="none" stroke="#fff" stroke-width="3"/>
    <path id="Контур_2" data-name="Контур 2" d="M1004,629.5s34.254,6.369,34.254-41.708,32.178-39.18,32.178-39.18" transform="translate(0 338)" fill="none" stroke="#fff" stroke-width="3"/>
    <circle id="Эллипс_14" data-name="Эллипс 14" cx="33" cy="33" r="33" transform="translate(1070 854)" fill="#43bee5"/>
    <circle id="Эллипс_17" data-name="Эллипс 17" cx="33" cy="33" r="33" transform="translate(1225 854)" fill="#43bee5"/>
  </g>
</svg>
