<svg xmlns="http://www.w3.org/2000/svg" width="1177" height="423" viewBox="0 0 1177 423">
  <g id="Сгруппировать_9" data-name="Сгруппировать 9" transform="translate(-435 -5465)">
    <g id="Прямоугольник_32" data-name="Прямоугольник 32" transform="translate(435 5465)" fill="#151a40" stroke="#707070" stroke-width="1">
      <rect width="1177" height="423" stroke="none"/>
      <rect x="0.5" y="0.5" width="1176" height="422" fill="none"/>
    </g>
    <path id="Контур_66" data-name="Контур 66" d="M-64.32-20.68V0h5.68V-12a5.845,5.845,0,0,1,.44-2.46,3.972,3.972,0,0,1,1.06-1.44,3.518,3.518,0,0,1,1.28-.68,4.256,4.256,0,0,1,1.06-.18,3.772,3.772,0,0,1,2.06.46,2.553,2.553,0,0,1,1,1.22,5.109,5.109,0,0,1,.34,1.66q.04.9.04,1.82V0h5.68V-11.52a12.88,12.88,0,0,1,.14-1.9,4.805,4.805,0,0,1,.56-1.68,3.333,3.333,0,0,1,1.16-1.2,3.633,3.633,0,0,1,1.94-.46,3.834,3.834,0,0,1,1.9.4,2.664,2.664,0,0,1,1.06,1.08,4.16,4.16,0,0,1,.44,1.6q.08.92.08,1.96V0h5.68V-13.84a9.327,9.327,0,0,0-.56-3.42,5.864,5.864,0,0,0-1.56-2.3,6.12,6.12,0,0,0-2.4-1.28,11.029,11.029,0,0,0-3.04-.4,6.647,6.647,0,0,0-3.74,1.04,8.8,8.8,0,0,0-2.5,2.4,5.03,5.03,0,0,0-2.46-2.68,8.324,8.324,0,0,0-3.58-.76,7.314,7.314,0,0,0-3.62.88,8.089,8.089,0,0,0-2.7,2.48h-.08v-2.8Zm35.84,6.36a6.6,6.6,0,0,1,1-3.32,6.81,6.81,0,0,1,2.24-2.12,9.761,9.761,0,0,1,3.06-1.14,17.4,17.4,0,0,1,3.42-.34,23.178,23.178,0,0,1,3.16.22,9.667,9.667,0,0,1,2.92.86,5.753,5.753,0,0,1,2.16,1.78,4.974,4.974,0,0,1,.84,3.02V-4.6a21.61,21.61,0,0,0,.16,2.68A4.845,4.845,0,0,0-8.96,0h-5.76a8.151,8.151,0,0,1-.26-.98A8.534,8.534,0,0,1-15.12-2a7.4,7.4,0,0,1-3.2,1.96,12.844,12.844,0,0,1-3.76.56A10.158,10.158,0,0,1-24.84.16,6.321,6.321,0,0,1-27.08-.96a5.214,5.214,0,0,1-1.5-1.92,6.492,6.492,0,0,1-.54-2.76,6.03,6.03,0,0,1,.62-2.9,5.184,5.184,0,0,1,1.6-1.82,7.169,7.169,0,0,1,2.24-1.02,23.913,23.913,0,0,1,2.54-.54q1.28-.2,2.52-.32a15.154,15.154,0,0,0,2.2-.36,3.835,3.835,0,0,0,1.52-.7,1.536,1.536,0,0,0,.52-1.34,3.014,3.014,0,0,0-.3-1.46,2.206,2.206,0,0,0-.8-.84,3.147,3.147,0,0,0-1.16-.4,9.492,9.492,0,0,0-1.42-.1,4.311,4.311,0,0,0-2.64.72,3.214,3.214,0,0,0-1.12,2.4Zm13.12,4.2a2.548,2.548,0,0,1-.9.5,9.192,9.192,0,0,1-1.16.3q-.62.12-1.3.2t-1.36.2a10.257,10.257,0,0,0-1.26.32,3.725,3.725,0,0,0-1.08.54,2.567,2.567,0,0,0-.74.86,2.767,2.767,0,0,0-.28,1.32,2.672,2.672,0,0,0,.28,1.28,2.147,2.147,0,0,0,.76.82,3.208,3.208,0,0,0,1.12.42,7.149,7.149,0,0,0,1.32.12,5.021,5.021,0,0,0,2.6-.56A3.746,3.746,0,0,0-16-5.14a4.285,4.285,0,0,0,.54-1.58A10.854,10.854,0,0,0-15.36-8ZM-.88-6.72h-5.4a6.954,6.954,0,0,0,.94,3.46,6.864,6.864,0,0,0,2.2,2.22A9.291,9.291,0,0,0-.08.16,17.136,17.136,0,0,0,3.44.52,17.6,17.6,0,0,0,6.9.18,8.772,8.772,0,0,0,9.92-1a6.562,6.562,0,0,0,2.14-2.22,6.594,6.594,0,0,0,.82-3.42,4.813,4.813,0,0,0-.56-2.42,5.126,5.126,0,0,0-1.48-1.64,7.961,7.961,0,0,0-2.1-1.06,24,24,0,0,0-2.42-.68q-1.2-.28-2.36-.52A18.252,18.252,0,0,1,1.9-13.5a4.317,4.317,0,0,1-1.46-.78,1.558,1.558,0,0,1-.56-1.24A1.532,1.532,0,0,1,.2-16.54a2.1,2.1,0,0,1,.78-.58A3.472,3.472,0,0,1,2-17.38a9.8,9.8,0,0,1,1.04-.06,5.668,5.668,0,0,1,2.64.58,2.485,2.485,0,0,1,1.24,2.22h5.4a6.785,6.785,0,0,0-.98-3.18,6.474,6.474,0,0,0-2.06-2.02,8.623,8.623,0,0,0-2.82-1.08,16.384,16.384,0,0,0-3.26-.32,17.761,17.761,0,0,0-3.28.3A9.032,9.032,0,0,0-2.96-19.9a5.75,5.75,0,0,0-2.06,2.02A6.222,6.222,0,0,0-5.8-14.6a4.42,4.42,0,0,0,.56,2.3,4.863,4.863,0,0,0,1.48,1.56,8.27,8.27,0,0,0,2.1,1q1.18.38,2.42.66A33.948,33.948,0,0,1,5.5-7.8q1.7.64,1.7,1.92a2.1,2.1,0,0,1-.36,1.26,2.728,2.728,0,0,1-.9.8,4.286,4.286,0,0,1-1.2.44,6.075,6.075,0,0,1-1.26.14,6.5,6.5,0,0,1-1.62-.2A4.2,4.2,0,0,1,.48-4.06,3.32,3.32,0,0,1-.5-5.14,3.115,3.115,0,0,1-.88-6.72ZM23.4-20.68v-6.2H17.72v6.2H14.28v3.8h3.44v12.2a5.284,5.284,0,0,0,.52,2.52A3.706,3.706,0,0,0,19.66-.68a5.9,5.9,0,0,0,2.08.7,16.582,16.582,0,0,0,2.5.18q.84,0,1.72-.04A13.516,13.516,0,0,0,27.56,0V-4.4a7.957,7.957,0,0,1-.84.12q-.44.04-.92.04a2.78,2.78,0,0,1-1.92-.48,2.78,2.78,0,0,1-.48-1.92V-16.88h4.16v-3.8Zm20.8,8.12H34.96a6.52,6.52,0,0,1,.26-1.36,4.176,4.176,0,0,1,.76-1.44,4.3,4.3,0,0,1,1.44-1.14,4.941,4.941,0,0,1,2.26-.46,3.989,3.989,0,0,1,3.1,1.12A6.565,6.565,0,0,1,44.2-12.56Zm-9.24,3.6H49.88a14.6,14.6,0,0,0-.4-4.6,11.259,11.259,0,0,0-1.82-3.92,9.181,9.181,0,0,0-3.22-2.74,9.833,9.833,0,0,0-4.6-1.02,10.711,10.711,0,0,0-4.3.84,10.167,10.167,0,0,0-3.34,2.3,10.138,10.138,0,0,0-2.16,3.46,12.061,12.061,0,0,0-.76,4.32,12.591,12.591,0,0,0,.74,4.4,9.992,9.992,0,0,0,2.1,3.44A9.149,9.149,0,0,0,35.44-.26a11.811,11.811,0,0,0,4.4.78,10.832,10.832,0,0,0,6-1.6A9.492,9.492,0,0,0,49.52-6.4h-5A3.568,3.568,0,0,1,43-4.58a5.064,5.064,0,0,1-2.96.86,5.078,5.078,0,0,1-3.68-1.24A5.742,5.742,0,0,1,34.96-8.96ZM53.24-20.68V0h5.68V-9.32a11.431,11.431,0,0,1,.28-2.6,5.694,5.694,0,0,1,.94-2.1,4.572,4.572,0,0,1,1.74-1.42,6.051,6.051,0,0,1,2.64-.52,10.144,10.144,0,0,1,1.08.06q.56.06.96.14v-5.28a4.43,4.43,0,0,0-1.24-.2,6.783,6.783,0,0,0-2.08.32,7.622,7.622,0,0,0-1.88.9,7.076,7.076,0,0,0-1.56,1.4,6.985,6.985,0,0,0-1.08,1.78h-.08v-3.84Z" transform="translate(592 5725)" fill="#fff"/>
    <path id="Контур_57" data-name="Контур 57" d="M-122.68-6.72h-5.4a6.954,6.954,0,0,0,.94,3.46,6.864,6.864,0,0,0,2.2,2.22,9.291,9.291,0,0,0,3.06,1.2,17.136,17.136,0,0,0,3.52.36A17.6,17.6,0,0,0-114.9.18,8.772,8.772,0,0,0-111.88-1a6.562,6.562,0,0,0,2.14-2.22,6.594,6.594,0,0,0,.82-3.42,4.813,4.813,0,0,0-.56-2.42,5.126,5.126,0,0,0-1.48-1.64,7.961,7.961,0,0,0-2.1-1.06,24,24,0,0,0-2.42-.68q-1.2-.28-2.36-.52a18.251,18.251,0,0,1-2.06-.54,4.317,4.317,0,0,1-1.46-.78,1.558,1.558,0,0,1-.56-1.24,1.532,1.532,0,0,1,.32-1.02,2.1,2.1,0,0,1,.78-.58,3.472,3.472,0,0,1,1.02-.26,9.8,9.8,0,0,1,1.04-.06,5.668,5.668,0,0,1,2.64.58,2.485,2.485,0,0,1,1.24,2.22h5.4a6.785,6.785,0,0,0-.98-3.18,6.474,6.474,0,0,0-2.06-2.02,8.623,8.623,0,0,0-2.82-1.08,16.384,16.384,0,0,0-3.26-.32,17.761,17.761,0,0,0-3.28.3,9.032,9.032,0,0,0-2.88,1.04,5.75,5.75,0,0,0-2.06,2.02,6.222,6.222,0,0,0-.78,3.28,4.421,4.421,0,0,0,.56,2.3,4.863,4.863,0,0,0,1.48,1.56,8.27,8.27,0,0,0,2.1,1q1.18.38,2.42.66A33.949,33.949,0,0,1-116.3-7.8q1.7.64,1.7,1.92a2.1,2.1,0,0,1-.36,1.26,2.728,2.728,0,0,1-.9.8,4.287,4.287,0,0,1-1.2.44,6.075,6.075,0,0,1-1.26.14,6.5,6.5,0,0,1-1.62-.2,4.2,4.2,0,0,1-1.38-.62,3.32,3.32,0,0,1-.98-1.08A3.115,3.115,0,0,1-122.68-6.72Zm22.12-3.6a12.411,12.411,0,0,1,.24-2.44,6.225,6.225,0,0,1,.82-2.12,4.606,4.606,0,0,1,1.54-1.5,4.571,4.571,0,0,1,2.4-.58,4.679,4.679,0,0,1,2.42.58,4.548,4.548,0,0,1,1.56,1.5,6.225,6.225,0,0,1,.82,2.12,12.411,12.411,0,0,1,.24,2.44,12.112,12.112,0,0,1-.24,2.42,6.447,6.447,0,0,1-.82,2.12,4.318,4.318,0,0,1-1.56,1.5,4.813,4.813,0,0,1-2.42.56,4.7,4.7,0,0,1-2.4-.56,4.367,4.367,0,0,1-1.54-1.5,6.447,6.447,0,0,1-.82-2.12A12.111,12.111,0,0,1-100.56-10.32Zm-5.68,0a12.531,12.531,0,0,0,.76,4.48,9.719,9.719,0,0,0,2.16,3.42A9.449,9.449,0,0,0-99.96-.24a12.088,12.088,0,0,0,4.4.76,12.249,12.249,0,0,0,4.42-.76,9.414,9.414,0,0,0,3.38-2.18A9.719,9.719,0,0,0-85.6-5.84a12.531,12.531,0,0,0,.76-4.48,12.7,12.7,0,0,0-.76-4.5,9.684,9.684,0,0,0-2.16-3.44,9.64,9.64,0,0,0-3.38-2.2,11.968,11.968,0,0,0-4.42-.78,11.811,11.811,0,0,0-4.4.78,9.679,9.679,0,0,0-3.36,2.2,9.684,9.684,0,0,0-2.16,3.44A12.7,12.7,0,0,0-106.24-10.32ZM-81-20.68V0h5.68V-12a5.845,5.845,0,0,1,.44-2.46,3.972,3.972,0,0,1,1.06-1.44,3.518,3.518,0,0,1,1.28-.68,4.256,4.256,0,0,1,1.06-.18,3.772,3.772,0,0,1,2.06.46,2.553,2.553,0,0,1,1,1.22,5.109,5.109,0,0,1,.34,1.66q.04.9.04,1.82V0h5.68V-11.52a12.88,12.88,0,0,1,.14-1.9,4.805,4.805,0,0,1,.56-1.68,3.333,3.333,0,0,1,1.16-1.2,3.633,3.633,0,0,1,1.94-.46,3.834,3.834,0,0,1,1.9.4,2.664,2.664,0,0,1,1.06,1.08,4.16,4.16,0,0,1,.44,1.6q.08.92.08,1.96V0h5.68V-13.84a9.327,9.327,0,0,0-.56-3.42,5.864,5.864,0,0,0-1.56-2.3,6.12,6.12,0,0,0-2.4-1.28,11.029,11.029,0,0,0-3.04-.4A6.647,6.647,0,0,0-60.7-20.2a8.8,8.8,0,0,0-2.5,2.4,5.03,5.03,0,0,0-2.46-2.68,8.324,8.324,0,0,0-3.58-.76,7.314,7.314,0,0,0-3.62.88,8.089,8.089,0,0,0-2.7,2.48h-.08v-2.8Zm50,8.12h-9.24a6.52,6.52,0,0,1,.26-1.36,4.176,4.176,0,0,1,.76-1.44,4.3,4.3,0,0,1,1.44-1.14,4.941,4.941,0,0,1,2.26-.46,3.989,3.989,0,0,1,3.1,1.12A6.565,6.565,0,0,1-31-12.56Zm-9.24,3.6h14.92a14.6,14.6,0,0,0-.4-4.6,11.259,11.259,0,0,0-1.82-3.92,9.181,9.181,0,0,0-3.22-2.74,9.833,9.833,0,0,0-4.6-1.02,10.711,10.711,0,0,0-4.3.84A10.167,10.167,0,0,0-43-18.1a10.138,10.138,0,0,0-2.16,3.46,12.061,12.061,0,0,0-.76,4.32,12.591,12.591,0,0,0,.74,4.4,9.992,9.992,0,0,0,2.1,3.44A9.149,9.149,0,0,0-39.76-.26a11.811,11.811,0,0,0,4.4.78,10.832,10.832,0,0,0,6-1.6A9.492,9.492,0,0,0-25.68-6.4h-5A3.568,3.568,0,0,1-32.2-4.58a5.064,5.064,0,0,1-2.96.86,5.078,5.078,0,0,1-3.68-1.24A5.742,5.742,0,0,1-40.24-8.96ZM-24.12,2.96v2h20v-2ZM13.2-10.32a10.879,10.879,0,0,1-.28,2.48,6.583,6.583,0,0,1-.88,2.12,4.609,4.609,0,0,1-1.5,1.46,4.163,4.163,0,0,1-2.18.54A4.19,4.19,0,0,1,6.2-4.26,4.542,4.542,0,0,1,4.68-5.72,6.583,6.583,0,0,1,3.8-7.84a10.879,10.879,0,0,1-.28-2.48,11.059,11.059,0,0,1,.28-2.52,6.583,6.583,0,0,1,.88-2.12A4.542,4.542,0,0,1,6.2-16.42a4.19,4.19,0,0,1,2.16-.54,4.163,4.163,0,0,1,2.18.54,4.609,4.609,0,0,1,1.5,1.46,6.583,6.583,0,0,1,.88,2.12A11.059,11.059,0,0,1,13.2-10.32ZM-1.96-28.56V0h5.4V-2.64h.08A5.178,5.178,0,0,0,6.24-.2a10.91,10.91,0,0,0,4.08.72A7.873,7.873,0,0,0,13.4-.12a7.886,7.886,0,0,0,2.74-1.96,10.022,10.022,0,0,0,1.98-3.38,14.17,14.17,0,0,0,.76-4.9,14.17,14.17,0,0,0-.76-4.9,10.022,10.022,0,0,0-1.98-3.38A7.886,7.886,0,0,0,13.4-20.6a7.873,7.873,0,0,0-3.08-.64,9.547,9.547,0,0,0-3.7.74A6.06,6.06,0,0,0,3.8-18.16H3.72v-10.4Zm24.44,7.88V0h5.68V-9.32a11.43,11.43,0,0,1,.28-2.6,5.694,5.694,0,0,1,.94-2.1,4.572,4.572,0,0,1,1.74-1.42,6.051,6.051,0,0,1,2.64-.52,10.144,10.144,0,0,1,1.08.06q.56.06.96.14v-5.28a4.43,4.43,0,0,0-1.24-.2,6.783,6.783,0,0,0-2.08.32,7.622,7.622,0,0,0-1.88.9,7.075,7.075,0,0,0-1.56,1.4,6.985,6.985,0,0,0-1.08,1.78h-.08v-3.84ZM37.8-14.32a6.6,6.6,0,0,1,1-3.32,6.81,6.81,0,0,1,2.24-2.12A9.761,9.761,0,0,1,44.1-20.9a17.4,17.4,0,0,1,3.42-.34,23.178,23.178,0,0,1,3.16.22,9.667,9.667,0,0,1,2.92.86,5.753,5.753,0,0,1,2.16,1.78,4.974,4.974,0,0,1,.84,3.02V-4.6a21.61,21.61,0,0,0,.16,2.68A4.845,4.845,0,0,0,57.32,0H51.56a8.151,8.151,0,0,1-.26-.98A8.534,8.534,0,0,1,51.16-2a7.4,7.4,0,0,1-3.2,1.96A12.844,12.844,0,0,1,44.2.52,10.158,10.158,0,0,1,41.44.16,6.321,6.321,0,0,1,39.2-.96a5.214,5.214,0,0,1-1.5-1.92,6.492,6.492,0,0,1-.54-2.76,6.03,6.03,0,0,1,.62-2.9,5.184,5.184,0,0,1,1.6-1.82,7.169,7.169,0,0,1,2.24-1.02,23.913,23.913,0,0,1,2.54-.54q1.28-.2,2.52-.32a15.154,15.154,0,0,0,2.2-.36,3.835,3.835,0,0,0,1.52-.7,1.536,1.536,0,0,0,.52-1.34,3.014,3.014,0,0,0-.3-1.46,2.206,2.206,0,0,0-.8-.84,3.147,3.147,0,0,0-1.16-.4,9.492,9.492,0,0,0-1.42-.1,4.311,4.311,0,0,0-2.64.72,3.214,3.214,0,0,0-1.12,2.4Zm13.12,4.2a2.548,2.548,0,0,1-.9.5,9.192,9.192,0,0,1-1.16.3q-.62.12-1.3.2t-1.36.2a10.258,10.258,0,0,0-1.26.32,3.725,3.725,0,0,0-1.08.54,2.567,2.567,0,0,0-.74.86,2.767,2.767,0,0,0-.28,1.32,2.672,2.672,0,0,0,.28,1.28,2.147,2.147,0,0,0,.76.82A3.208,3.208,0,0,0,45-3.36a7.149,7.149,0,0,0,1.32.12,5.021,5.021,0,0,0,2.6-.56,3.746,3.746,0,0,0,1.36-1.34,4.285,4.285,0,0,0,.54-1.58A10.853,10.853,0,0,0,50.92-8ZM61-20.68V0h5.68V-10.84a7.672,7.672,0,0,1,1.04-4.54,3.935,3.935,0,0,1,3.36-1.38,3.1,3.1,0,0,1,2.84,1.26,7.247,7.247,0,0,1,.8,3.82V0H80.4V-12.72a16.668,16.668,0,0,0-.34-3.5,6.656,6.656,0,0,0-1.18-2.68,5.545,5.545,0,0,0-2.3-1.72,9.647,9.647,0,0,0-3.74-.62,8.1,8.1,0,0,0-3.52.82,6.517,6.517,0,0,0-2.8,2.62H66.4v-2.88ZM98.8-13.4h5.56a7.78,7.78,0,0,0-.96-3.46,7.815,7.815,0,0,0-2.18-2.44,9.449,9.449,0,0,0-3.04-1.46,12.965,12.965,0,0,0-3.54-.48,11.28,11.28,0,0,0-4.48.84,9.429,9.429,0,0,0-3.32,2.34,10.034,10.034,0,0,0-2.06,3.56,13.777,13.777,0,0,0-.7,4.46,11.582,11.582,0,0,0,.76,4.26,9.928,9.928,0,0,0,2.12,3.34,9.446,9.446,0,0,0,3.3,2.18,11.318,11.318,0,0,0,4.26.78,10.328,10.328,0,0,0,6.76-2.16,9.371,9.371,0,0,0,3.2-6.28H99a5.392,5.392,0,0,1-1.38,3.06,4.161,4.161,0,0,1-3.14,1.14,4.012,4.012,0,0,1-2.24-.6,4.481,4.481,0,0,1-1.46-1.54A7.053,7.053,0,0,1,90-7.96a11.234,11.234,0,0,1-.24-2.28A11.716,11.716,0,0,1,90-12.58a6.911,6.911,0,0,1,.82-2.16,4.927,4.927,0,0,1,1.5-1.6,3.989,3.989,0,0,1,2.28-.62A3.808,3.808,0,0,1,98.8-13.4Zm8.88-15.16V0h5.68V-10.84a7.672,7.672,0,0,1,1.04-4.54,3.935,3.935,0,0,1,3.36-1.38,3.1,3.1,0,0,1,2.84,1.26,7.247,7.247,0,0,1,.8,3.82V0h5.68V-12.72a16.668,16.668,0,0,0-.34-3.5,6.656,6.656,0,0,0-1.18-2.68,5.545,5.545,0,0,0-2.3-1.72,9.647,9.647,0,0,0-3.74-.62,7.449,7.449,0,0,0-3.28.82,6.577,6.577,0,0,0-2.76,2.62h-.12V-28.56Z" transform="translate(592 5553)" fill="#43bee5"/>
    <path id="Контур_54" data-name="Контур 54" d="M986.935,3253s-32.23-2.99-32.23-99.59-26.7-82.518-26.7-82.518" transform="translate(271.033 2460)" fill="none" stroke="#fff" stroke-width="3"/>
    <rect id="Прямоугольник_33" data-name="Прямоугольник 33" width="214" height="66" transform="translate(714 5680)" fill="#fff"/>
    <rect id="Прямоугольник_34" data-name="Прямоугольник 34" width="214" height="66" transform="translate(986 5680)" fill="#fff"/>
    <rect id="Прямоугольник_35" data-name="Прямоугольник 35" width="214" height="66" transform="translate(1258 5680)" fill="#fff"/>
    <rect id="Прямоугольник_36" data-name="Прямоугольник 36" width="214" height="66" transform="translate(986 5499)" fill="#43bee5"/>
    <path id="Контур_64" data-name="Контур 64" d="M-58.6-10.05h4.17a5.835,5.835,0,0,0-.72-2.595,5.861,5.861,0,0,0-1.635-1.83,7.086,7.086,0,0,0-2.28-1.1,9.724,9.724,0,0,0-2.655-.36,8.46,8.46,0,0,0-3.36.63,7.071,7.071,0,0,0-2.49,1.755,7.526,7.526,0,0,0-1.545,2.67,10.333,10.333,0,0,0-.525,3.345,8.687,8.687,0,0,0,.57,3.195,7.446,7.446,0,0,0,1.59,2.5A7.084,7.084,0,0,0-65.01-.2,8.489,8.489,0,0,0-61.815.39a7.746,7.746,0,0,0,5.07-1.62,7.028,7.028,0,0,0,2.4-4.71h-4.11a4.044,4.044,0,0,1-1.035,2.3,3.121,3.121,0,0,1-2.355.855,3.009,3.009,0,0,1-1.68-.45A3.361,3.361,0,0,1-64.62-4.395,5.29,5.29,0,0,1-65.2-5.97a8.425,8.425,0,0,1-.18-1.71,8.787,8.787,0,0,1,.18-1.755,5.183,5.183,0,0,1,.615-1.62,3.7,3.7,0,0,1,1.125-1.2,2.992,2.992,0,0,1,1.71-.465A2.856,2.856,0,0,1-58.6-10.05Zm10.44,2.31a9.308,9.308,0,0,1,.18-1.83,4.669,4.669,0,0,1,.615-1.59,3.454,3.454,0,0,1,1.155-1.125,3.428,3.428,0,0,1,1.8-.435,3.51,3.51,0,0,1,1.815.435,3.411,3.411,0,0,1,1.17,1.125,4.669,4.669,0,0,1,.615,1.59,9.308,9.308,0,0,1,.18,1.83,9.084,9.084,0,0,1-.18,1.815,4.835,4.835,0,0,1-.615,1.59A3.238,3.238,0,0,1-42.6-3.21a3.61,3.61,0,0,1-1.815.42,3.526,3.526,0,0,1-1.8-.42A3.276,3.276,0,0,1-47.37-4.335a4.835,4.835,0,0,1-.615-1.59A9.084,9.084,0,0,1-48.165-7.74Zm-4.26,0a9.4,9.4,0,0,0,.57,3.36,7.289,7.289,0,0,0,1.62,2.565A7.087,7.087,0,0,0-47.715-.18a9.066,9.066,0,0,0,3.3.57A9.187,9.187,0,0,0-41.1-.18a7.06,7.06,0,0,0,2.535-1.635,7.289,7.289,0,0,0,1.62-2.565,9.4,9.4,0,0,0,.57-3.36,9.521,9.521,0,0,0-.57-3.375,7.263,7.263,0,0,0-1.62-2.58,7.23,7.23,0,0,0-2.535-1.65,8.976,8.976,0,0,0-3.315-.585,8.858,8.858,0,0,0-3.3.585,7.259,7.259,0,0,0-2.52,1.65,7.263,7.263,0,0,0-1.62,2.58A9.521,9.521,0,0,0-52.425-7.74Zm18.93-7.77V0h4.26V-9a4.384,4.384,0,0,1,.33-1.845,2.979,2.979,0,0,1,.8-1.08,2.638,2.638,0,0,1,.96-.51,3.192,3.192,0,0,1,.8-.135,2.829,2.829,0,0,1,1.545.345,1.915,1.915,0,0,1,.75.915,3.831,3.831,0,0,1,.255,1.245q.03.675.03,1.365V0h4.26V-8.64a9.66,9.66,0,0,1,.1-1.425,3.6,3.6,0,0,1,.42-1.26,2.5,2.5,0,0,1,.87-.9,2.725,2.725,0,0,1,1.455-.345,2.875,2.875,0,0,1,1.425.3,2,2,0,0,1,.8.81,3.12,3.12,0,0,1,.33,1.2q.06.69.06,1.47V0h4.26V-10.38a7,7,0,0,0-.42-2.565,4.4,4.4,0,0,0-1.17-1.725,4.59,4.59,0,0,0-1.8-.96,8.272,8.272,0,0,0-2.28-.3,4.985,4.985,0,0,0-2.8.78,6.6,6.6,0,0,0-1.875,1.8,3.772,3.772,0,0,0-1.845-2.01,6.243,6.243,0,0,0-2.685-.57,5.485,5.485,0,0,0-2.715.66,6.066,6.066,0,0,0-2.025,1.86h-.06v-2.1Zm27.18,0V0h4.26V-9a4.384,4.384,0,0,1,.33-1.845,2.979,2.979,0,0,1,.8-1.08,2.638,2.638,0,0,1,.96-.51,3.192,3.192,0,0,1,.8-.135,2.829,2.829,0,0,1,1.545.345,1.915,1.915,0,0,1,.75.915,3.831,3.831,0,0,1,.255,1.245q.03.675.03,1.365V0h4.26V-8.64a9.66,9.66,0,0,1,.1-1.425,3.6,3.6,0,0,1,.42-1.26,2.5,2.5,0,0,1,.87-.9,2.725,2.725,0,0,1,1.455-.345,2.875,2.875,0,0,1,1.425.3,2,2,0,0,1,.8.81,3.12,3.12,0,0,1,.33,1.2q.06.69.06,1.47V0h4.26V-10.38a7,7,0,0,0-.42-2.565A4.4,4.4,0,0,0,15.8-14.67a4.59,4.59,0,0,0-1.8-.96,8.272,8.272,0,0,0-2.28-.3,4.985,4.985,0,0,0-2.8.78,6.6,6.6,0,0,0-1.875,1.8A3.772,3.772,0,0,0,5.19-15.36a6.243,6.243,0,0,0-2.685-.57,5.485,5.485,0,0,0-2.715.66,6.066,6.066,0,0,0-2.025,1.86h-.06v-2.1Zm31.44-2.4v-3.51h-4.26v3.51Zm-4.26,2.4V0h4.26V-15.51Zm13.02,0v-4.65h-4.26v4.65h-2.58v2.85h2.58v9.15a3.963,3.963,0,0,0,.39,1.89A2.779,2.779,0,0,0,31.08-.51a4.422,4.422,0,0,0,1.56.525A12.436,12.436,0,0,0,34.515.15q.63,0,1.29-.03a10.137,10.137,0,0,0,1.2-.12V-3.3a5.968,5.968,0,0,1-.63.09q-.33.03-.69.03a2.085,2.085,0,0,1-1.44-.36,2.085,2.085,0,0,1-.36-1.44v-7.68h3.12v-2.85Zm10.83,3.15H47.6l-.51,3.72h-2.91Zm-3.81,6.42L40.065,0h2.91l.84-5.94H46.7L45.885,0H48.8l.81-5.94h2.61v-2.7H50l.51-3.72h2.61v-2.7H50.9l.81-5.94H48.8l-.81,5.94h-2.91l.84-5.94h-2.91l-.84,5.94h-2.85v2.7h2.49l-.54,3.72h-2.85v2.7ZM65.865,0V-21h-3.39a4.637,4.637,0,0,1-.75,2.01,4.564,4.564,0,0,1-1.4,1.305,5.6,5.6,0,0,1-1.86.69,10.084,10.084,0,0,1-2.145.165v3.21h5.28V0Z" transform="translate(821 5724)" fill="#989898"/>
    <path id="Контур_63" data-name="Контур 63" d="M-58.6-10.05h4.17a5.835,5.835,0,0,0-.72-2.595,5.861,5.861,0,0,0-1.635-1.83,7.086,7.086,0,0,0-2.28-1.1,9.724,9.724,0,0,0-2.655-.36,8.46,8.46,0,0,0-3.36.63,7.071,7.071,0,0,0-2.49,1.755,7.526,7.526,0,0,0-1.545,2.67,10.333,10.333,0,0,0-.525,3.345,8.687,8.687,0,0,0,.57,3.195,7.446,7.446,0,0,0,1.59,2.5A7.084,7.084,0,0,0-65.01-.2,8.489,8.489,0,0,0-61.815.39a7.746,7.746,0,0,0,5.07-1.62,7.028,7.028,0,0,0,2.4-4.71h-4.11a4.044,4.044,0,0,1-1.035,2.3,3.121,3.121,0,0,1-2.355.855,3.009,3.009,0,0,1-1.68-.45A3.361,3.361,0,0,1-64.62-4.395,5.29,5.29,0,0,1-65.2-5.97a8.425,8.425,0,0,1-.18-1.71,8.787,8.787,0,0,1,.18-1.755,5.183,5.183,0,0,1,.615-1.62,3.7,3.7,0,0,1,1.125-1.2,2.992,2.992,0,0,1,1.71-.465A2.856,2.856,0,0,1-58.6-10.05Zm10.44,2.31a9.308,9.308,0,0,1,.18-1.83,4.669,4.669,0,0,1,.615-1.59,3.454,3.454,0,0,1,1.155-1.125,3.428,3.428,0,0,1,1.8-.435,3.51,3.51,0,0,1,1.815.435,3.411,3.411,0,0,1,1.17,1.125,4.669,4.669,0,0,1,.615,1.59,9.308,9.308,0,0,1,.18,1.83,9.084,9.084,0,0,1-.18,1.815,4.835,4.835,0,0,1-.615,1.59A3.238,3.238,0,0,1-42.6-3.21a3.61,3.61,0,0,1-1.815.42,3.526,3.526,0,0,1-1.8-.42A3.276,3.276,0,0,1-47.37-4.335a4.835,4.835,0,0,1-.615-1.59A9.084,9.084,0,0,1-48.165-7.74Zm-4.26,0a9.4,9.4,0,0,0,.57,3.36,7.289,7.289,0,0,0,1.62,2.565A7.087,7.087,0,0,0-47.715-.18a9.066,9.066,0,0,0,3.3.57A9.187,9.187,0,0,0-41.1-.18a7.06,7.06,0,0,0,2.535-1.635,7.289,7.289,0,0,0,1.62-2.565,9.4,9.4,0,0,0,.57-3.36,9.521,9.521,0,0,0-.57-3.375,7.263,7.263,0,0,0-1.62-2.58,7.23,7.23,0,0,0-2.535-1.65,8.976,8.976,0,0,0-3.315-.585,8.858,8.858,0,0,0-3.3.585,7.259,7.259,0,0,0-2.52,1.65,7.263,7.263,0,0,0-1.62,2.58A9.521,9.521,0,0,0-52.425-7.74Zm18.93-7.77V0h4.26V-9a4.384,4.384,0,0,1,.33-1.845,2.979,2.979,0,0,1,.8-1.08,2.638,2.638,0,0,1,.96-.51,3.192,3.192,0,0,1,.8-.135,2.829,2.829,0,0,1,1.545.345,1.915,1.915,0,0,1,.75.915,3.831,3.831,0,0,1,.255,1.245q.03.675.03,1.365V0h4.26V-8.64a9.66,9.66,0,0,1,.1-1.425,3.6,3.6,0,0,1,.42-1.26,2.5,2.5,0,0,1,.87-.9,2.725,2.725,0,0,1,1.455-.345,2.875,2.875,0,0,1,1.425.3,2,2,0,0,1,.8.81,3.12,3.12,0,0,1,.33,1.2q.06.69.06,1.47V0h4.26V-10.38a7,7,0,0,0-.42-2.565,4.4,4.4,0,0,0-1.17-1.725,4.59,4.59,0,0,0-1.8-.96,8.272,8.272,0,0,0-2.28-.3,4.985,4.985,0,0,0-2.8.78,6.6,6.6,0,0,0-1.875,1.8,3.772,3.772,0,0,0-1.845-2.01,6.243,6.243,0,0,0-2.685-.57,5.485,5.485,0,0,0-2.715.66,6.066,6.066,0,0,0-2.025,1.86h-.06v-2.1Zm27.18,0V0h4.26V-9a4.384,4.384,0,0,1,.33-1.845,2.979,2.979,0,0,1,.8-1.08,2.638,2.638,0,0,1,.96-.51,3.192,3.192,0,0,1,.8-.135,2.829,2.829,0,0,1,1.545.345,1.915,1.915,0,0,1,.75.915,3.831,3.831,0,0,1,.255,1.245q.03.675.03,1.365V0h4.26V-8.64a9.66,9.66,0,0,1,.1-1.425,3.6,3.6,0,0,1,.42-1.26,2.5,2.5,0,0,1,.87-.9,2.725,2.725,0,0,1,1.455-.345,2.875,2.875,0,0,1,1.425.3,2,2,0,0,1,.8.81,3.12,3.12,0,0,1,.33,1.2q.06.69.06,1.47V0h4.26V-10.38a7,7,0,0,0-.42-2.565A4.4,4.4,0,0,0,15.8-14.67a4.59,4.59,0,0,0-1.8-.96,8.272,8.272,0,0,0-2.28-.3,4.985,4.985,0,0,0-2.8.78,6.6,6.6,0,0,0-1.875,1.8A3.772,3.772,0,0,0,5.19-15.36a6.243,6.243,0,0,0-2.685-.57,5.485,5.485,0,0,0-2.715.66,6.066,6.066,0,0,0-2.025,1.86h-.06v-2.1Zm31.44-2.4v-3.51h-4.26v3.51Zm-4.26,2.4V0h4.26V-15.51Zm13.02,0v-4.65h-4.26v4.65h-2.58v2.85h2.58v9.15a3.963,3.963,0,0,0,.39,1.89A2.779,2.779,0,0,0,31.08-.51a4.422,4.422,0,0,0,1.56.525A12.436,12.436,0,0,0,34.515.15q.63,0,1.29-.03a10.137,10.137,0,0,0,1.2-.12V-3.3a5.968,5.968,0,0,1-.63.09q-.33.03-.69.03a2.085,2.085,0,0,1-1.44-.36,2.085,2.085,0,0,1-.36-1.44v-7.68h3.12v-2.85Zm10.83,3.15H47.6l-.51,3.72h-2.91Zm-3.81,6.42L40.065,0h2.91l.84-5.94H46.7L45.885,0H48.8l.81-5.94h2.61v-2.7H50l.51-3.72h2.61v-2.7H50.9l.81-5.94H48.8l-.81,5.94h-2.91l.84-5.94h-2.91l-.84,5.94h-2.85v2.7h2.49l-.54,3.72h-2.85v2.7Zm20.04-6.57v3q.78,0,1.635.045a4.96,4.96,0,0,1,1.575.33,2.667,2.667,0,0,1,1.185.915,3.051,3.051,0,0,1,.465,1.83,3.075,3.075,0,0,1-.99,2.415,3.515,3.515,0,0,1-2.43.885,3.62,3.62,0,0,1-1.6-.33A3.281,3.281,0,0,1,59.655-4.3a3.946,3.946,0,0,1-.69-1.32A6.06,6.06,0,0,1,58.7-7.23h-4.05a8.417,8.417,0,0,0,.525,3.24,6.583,6.583,0,0,0,1.575,2.385A6.765,6.765,0,0,0,59.22-.12a9.7,9.7,0,0,0,3.225.51,9.611,9.611,0,0,0,2.94-.45,7.618,7.618,0,0,0,2.49-1.32A6.421,6.421,0,0,0,69.6-3.54a6.486,6.486,0,0,0,.645-2.94,4.926,4.926,0,0,0-.99-3.09,4.573,4.573,0,0,0-2.73-1.68v-.06A3.686,3.686,0,0,0,68.73-12.9a4.968,4.968,0,0,0,.735-2.7,4.85,4.85,0,0,0-.63-2.49A6.091,6.091,0,0,0,67.2-19.92a7.173,7.173,0,0,0-2.265-1.125,8.8,8.8,0,0,0-2.52-.375,7.892,7.892,0,0,0-2.94.525A6.511,6.511,0,0,0,57.21-19.41a6.748,6.748,0,0,0-1.47,2.3,8.926,8.926,0,0,0-.585,2.955h4.05a4.123,4.123,0,0,1,.8-2.685,2.9,2.9,0,0,1,2.445-1.065,3.22,3.22,0,0,1,2.07.72,2.5,2.5,0,0,1,.9,2.07,2.228,2.228,0,0,1-.435,1.44,2.792,2.792,0,0,1-1.11.825,4.627,4.627,0,0,1-1.455.345A9.01,9.01,0,0,1,60.945-12.51Z" transform="translate(1093 5724)" fill="#989898"/>
    <path id="Контур_60" data-name="Контур 60" d="M-58.6-10.05h4.17a5.835,5.835,0,0,0-.72-2.595,5.861,5.861,0,0,0-1.635-1.83,7.086,7.086,0,0,0-2.28-1.1,9.724,9.724,0,0,0-2.655-.36,8.46,8.46,0,0,0-3.36.63,7.071,7.071,0,0,0-2.49,1.755,7.526,7.526,0,0,0-1.545,2.67,10.333,10.333,0,0,0-.525,3.345,8.687,8.687,0,0,0,.57,3.195,7.446,7.446,0,0,0,1.59,2.5A7.084,7.084,0,0,0-65.01-.2,8.489,8.489,0,0,0-61.815.39a7.746,7.746,0,0,0,5.07-1.62,7.028,7.028,0,0,0,2.4-4.71h-4.11a4.044,4.044,0,0,1-1.035,2.3,3.121,3.121,0,0,1-2.355.855,3.009,3.009,0,0,1-1.68-.45A3.361,3.361,0,0,1-64.62-4.395,5.29,5.29,0,0,1-65.2-5.97a8.425,8.425,0,0,1-.18-1.71,8.787,8.787,0,0,1,.18-1.755,5.183,5.183,0,0,1,.615-1.62,3.7,3.7,0,0,1,1.125-1.2,2.992,2.992,0,0,1,1.71-.465A2.856,2.856,0,0,1-58.6-10.05Zm10.44,2.31a9.308,9.308,0,0,1,.18-1.83,4.669,4.669,0,0,1,.615-1.59,3.454,3.454,0,0,1,1.155-1.125,3.428,3.428,0,0,1,1.8-.435,3.51,3.51,0,0,1,1.815.435,3.411,3.411,0,0,1,1.17,1.125,4.669,4.669,0,0,1,.615,1.59,9.308,9.308,0,0,1,.18,1.83,9.084,9.084,0,0,1-.18,1.815,4.835,4.835,0,0,1-.615,1.59A3.238,3.238,0,0,1-42.6-3.21a3.61,3.61,0,0,1-1.815.42,3.526,3.526,0,0,1-1.8-.42A3.276,3.276,0,0,1-47.37-4.335a4.835,4.835,0,0,1-.615-1.59A9.084,9.084,0,0,1-48.165-7.74Zm-4.26,0a9.4,9.4,0,0,0,.57,3.36,7.289,7.289,0,0,0,1.62,2.565A7.087,7.087,0,0,0-47.715-.18a9.066,9.066,0,0,0,3.3.57A9.187,9.187,0,0,0-41.1-.18a7.06,7.06,0,0,0,2.535-1.635,7.289,7.289,0,0,0,1.62-2.565,9.4,9.4,0,0,0,.57-3.36,9.521,9.521,0,0,0-.57-3.375,7.263,7.263,0,0,0-1.62-2.58,7.23,7.23,0,0,0-2.535-1.65,8.976,8.976,0,0,0-3.315-.585,8.858,8.858,0,0,0-3.3.585,7.259,7.259,0,0,0-2.52,1.65,7.263,7.263,0,0,0-1.62,2.58A9.521,9.521,0,0,0-52.425-7.74Zm18.93-7.77V0h4.26V-9a4.384,4.384,0,0,1,.33-1.845,2.979,2.979,0,0,1,.8-1.08,2.638,2.638,0,0,1,.96-.51,3.192,3.192,0,0,1,.8-.135,2.829,2.829,0,0,1,1.545.345,1.915,1.915,0,0,1,.75.915,3.831,3.831,0,0,1,.255,1.245q.03.675.03,1.365V0h4.26V-8.64a9.66,9.66,0,0,1,.1-1.425,3.6,3.6,0,0,1,.42-1.26,2.5,2.5,0,0,1,.87-.9,2.725,2.725,0,0,1,1.455-.345,2.875,2.875,0,0,1,1.425.3,2,2,0,0,1,.8.81,3.12,3.12,0,0,1,.33,1.2q.06.69.06,1.47V0h4.26V-10.38a7,7,0,0,0-.42-2.565,4.4,4.4,0,0,0-1.17-1.725,4.59,4.59,0,0,0-1.8-.96,8.272,8.272,0,0,0-2.28-.3,4.985,4.985,0,0,0-2.8.78,6.6,6.6,0,0,0-1.875,1.8,3.772,3.772,0,0,0-1.845-2.01,6.243,6.243,0,0,0-2.685-.57,5.485,5.485,0,0,0-2.715.66,6.066,6.066,0,0,0-2.025,1.86h-.06v-2.1Zm27.18,0V0h4.26V-9a4.384,4.384,0,0,1,.33-1.845,2.979,2.979,0,0,1,.8-1.08,2.638,2.638,0,0,1,.96-.51,3.192,3.192,0,0,1,.8-.135,2.829,2.829,0,0,1,1.545.345,1.915,1.915,0,0,1,.75.915,3.831,3.831,0,0,1,.255,1.245q.03.675.03,1.365V0h4.26V-8.64a9.66,9.66,0,0,1,.1-1.425,3.6,3.6,0,0,1,.42-1.26,2.5,2.5,0,0,1,.87-.9,2.725,2.725,0,0,1,1.455-.345,2.875,2.875,0,0,1,1.425.3,2,2,0,0,1,.8.81,3.12,3.12,0,0,1,.33,1.2q.06.69.06,1.47V0h4.26V-10.38a7,7,0,0,0-.42-2.565A4.4,4.4,0,0,0,15.8-14.67a4.59,4.59,0,0,0-1.8-.96,8.272,8.272,0,0,0-2.28-.3,4.985,4.985,0,0,0-2.8.78,6.6,6.6,0,0,0-1.875,1.8A3.772,3.772,0,0,0,5.19-15.36a6.243,6.243,0,0,0-2.685-.57,5.485,5.485,0,0,0-2.715.66,6.066,6.066,0,0,0-2.025,1.86h-.06v-2.1Zm31.44-2.4v-3.51h-4.26v3.51Zm-4.26,2.4V0h4.26V-15.51Zm13.02,0v-4.65h-4.26v4.65h-2.58v2.85h2.58v9.15a3.963,3.963,0,0,0,.39,1.89A2.779,2.779,0,0,0,31.08-.51a4.422,4.422,0,0,0,1.56.525A12.436,12.436,0,0,0,34.515.15q.63,0,1.29-.03a10.137,10.137,0,0,0,1.2-.12V-3.3a5.968,5.968,0,0,1-.63.09q-.33.03-.69.03a2.085,2.085,0,0,1-1.44-.36,2.085,2.085,0,0,1-.36-1.44v-7.68h3.12v-2.85Zm10.83,3.15H47.6l-.51,3.72h-2.91Zm-3.81,6.42L40.065,0h2.91l.84-5.94H46.7L45.885,0H48.8l.81-5.94h2.61v-2.7H50l.51-3.72h2.61v-2.7H50.9l.81-5.94H48.8l-.81,5.94h-2.91l.84-5.94h-2.91l-.84,5.94h-2.85v2.7h2.49l-.54,3.72h-2.85v2.7Zm22.56-9.72v7.29h-5.52l5.43-7.29Zm0,10.8V0h4.05V-4.86h2.79V-8.37h-2.79V-21h-3.81L54.585-8.76v3.9Z" transform="translate(1365 5724)" fill="#989898"/>
    <path id="Контур_58" data-name="Контур 58" d="M-58.6-10.05h4.17a5.835,5.835,0,0,0-.72-2.595,5.861,5.861,0,0,0-1.635-1.83,7.086,7.086,0,0,0-2.28-1.1,9.724,9.724,0,0,0-2.655-.36,8.46,8.46,0,0,0-3.36.63,7.071,7.071,0,0,0-2.49,1.755,7.526,7.526,0,0,0-1.545,2.67,10.333,10.333,0,0,0-.525,3.345,8.687,8.687,0,0,0,.57,3.195,7.446,7.446,0,0,0,1.59,2.5A7.084,7.084,0,0,0-65.01-.2,8.489,8.489,0,0,0-61.815.39a7.746,7.746,0,0,0,5.07-1.62,7.028,7.028,0,0,0,2.4-4.71h-4.11a4.044,4.044,0,0,1-1.035,2.3,3.121,3.121,0,0,1-2.355.855,3.009,3.009,0,0,1-1.68-.45A3.361,3.361,0,0,1-64.62-4.395,5.29,5.29,0,0,1-65.2-5.97a8.425,8.425,0,0,1-.18-1.71,8.787,8.787,0,0,1,.18-1.755,5.183,5.183,0,0,1,.615-1.62,3.7,3.7,0,0,1,1.125-1.2,2.992,2.992,0,0,1,1.71-.465A2.856,2.856,0,0,1-58.6-10.05Zm10.44,2.31a9.308,9.308,0,0,1,.18-1.83,4.669,4.669,0,0,1,.615-1.59,3.454,3.454,0,0,1,1.155-1.125,3.428,3.428,0,0,1,1.8-.435,3.51,3.51,0,0,1,1.815.435,3.411,3.411,0,0,1,1.17,1.125,4.669,4.669,0,0,1,.615,1.59,9.308,9.308,0,0,1,.18,1.83,9.084,9.084,0,0,1-.18,1.815,4.835,4.835,0,0,1-.615,1.59A3.238,3.238,0,0,1-42.6-3.21a3.61,3.61,0,0,1-1.815.42,3.526,3.526,0,0,1-1.8-.42A3.276,3.276,0,0,1-47.37-4.335a4.835,4.835,0,0,1-.615-1.59A9.084,9.084,0,0,1-48.165-7.74Zm-4.26,0a9.4,9.4,0,0,0,.57,3.36,7.289,7.289,0,0,0,1.62,2.565A7.087,7.087,0,0,0-47.715-.18a9.066,9.066,0,0,0,3.3.57A9.187,9.187,0,0,0-41.1-.18a7.06,7.06,0,0,0,2.535-1.635,7.289,7.289,0,0,0,1.62-2.565,9.4,9.4,0,0,0,.57-3.36,9.521,9.521,0,0,0-.57-3.375,7.263,7.263,0,0,0-1.62-2.58,7.23,7.23,0,0,0-2.535-1.65,8.976,8.976,0,0,0-3.315-.585,8.858,8.858,0,0,0-3.3.585,7.259,7.259,0,0,0-2.52,1.65,7.263,7.263,0,0,0-1.62,2.58A9.521,9.521,0,0,0-52.425-7.74Zm18.93-7.77V0h4.26V-9a4.384,4.384,0,0,1,.33-1.845,2.979,2.979,0,0,1,.8-1.08,2.638,2.638,0,0,1,.96-.51,3.192,3.192,0,0,1,.8-.135,2.829,2.829,0,0,1,1.545.345,1.915,1.915,0,0,1,.75.915,3.831,3.831,0,0,1,.255,1.245q.03.675.03,1.365V0h4.26V-8.64a9.66,9.66,0,0,1,.1-1.425,3.6,3.6,0,0,1,.42-1.26,2.5,2.5,0,0,1,.87-.9,2.725,2.725,0,0,1,1.455-.345,2.875,2.875,0,0,1,1.425.3,2,2,0,0,1,.8.81,3.12,3.12,0,0,1,.33,1.2q.06.69.06,1.47V0h4.26V-10.38a7,7,0,0,0-.42-2.565,4.4,4.4,0,0,0-1.17-1.725,4.59,4.59,0,0,0-1.8-.96,8.272,8.272,0,0,0-2.28-.3,4.985,4.985,0,0,0-2.8.78,6.6,6.6,0,0,0-1.875,1.8,3.772,3.772,0,0,0-1.845-2.01,6.243,6.243,0,0,0-2.685-.57,5.485,5.485,0,0,0-2.715.66,6.066,6.066,0,0,0-2.025,1.86h-.06v-2.1Zm27.18,0V0h4.26V-9a4.384,4.384,0,0,1,.33-1.845,2.979,2.979,0,0,1,.8-1.08,2.638,2.638,0,0,1,.96-.51,3.192,3.192,0,0,1,.8-.135,2.829,2.829,0,0,1,1.545.345,1.915,1.915,0,0,1,.75.915,3.831,3.831,0,0,1,.255,1.245q.03.675.03,1.365V0h4.26V-8.64a9.66,9.66,0,0,1,.1-1.425,3.6,3.6,0,0,1,.42-1.26,2.5,2.5,0,0,1,.87-.9,2.725,2.725,0,0,1,1.455-.345,2.875,2.875,0,0,1,1.425.3,2,2,0,0,1,.8.81,3.12,3.12,0,0,1,.33,1.2q.06.69.06,1.47V0h4.26V-10.38a7,7,0,0,0-.42-2.565A4.4,4.4,0,0,0,15.8-14.67a4.59,4.59,0,0,0-1.8-.96,8.272,8.272,0,0,0-2.28-.3,4.985,4.985,0,0,0-2.8.78,6.6,6.6,0,0,0-1.875,1.8A3.772,3.772,0,0,0,5.19-15.36a6.243,6.243,0,0,0-2.685-.57,5.485,5.485,0,0,0-2.715.66,6.066,6.066,0,0,0-2.025,1.86h-.06v-2.1Zm31.44-2.4v-3.51h-4.26v3.51Zm-4.26,2.4V0h4.26V-15.51Zm13.02,0v-4.65h-4.26v4.65h-2.58v2.85h2.58v9.15a3.963,3.963,0,0,0,.39,1.89A2.779,2.779,0,0,0,31.08-.51a4.422,4.422,0,0,0,1.56.525A12.436,12.436,0,0,0,34.515.15q.63,0,1.29-.03a10.137,10.137,0,0,0,1.2-.12V-3.3a5.968,5.968,0,0,1-.63.09q-.33.03-.69.03a2.085,2.085,0,0,1-1.44-.36,2.085,2.085,0,0,1-.36-1.44v-7.68h3.12v-2.85Zm10.83,3.15H47.6l-.51,3.72h-2.91Zm-3.81,6.42L40.065,0h2.91l.84-5.94H46.7L45.885,0H48.8l.81-5.94h2.61v-2.7H50l.51-3.72h2.61v-2.7H50.9l.81-5.94H48.8l-.81,5.94h-2.91l.84-5.94h-2.91l-.84,5.94h-2.85v2.7h2.49l-.54,3.72h-2.85v2.7Zm14.31-6.99H59.3a8.929,8.929,0,0,1,.165-1.695,5.258,5.258,0,0,1,.555-1.56,3.247,3.247,0,0,1,1.035-1.14,2.752,2.752,0,0,1,1.575-.435,3.125,3.125,0,0,1,2.265.855,3.161,3.161,0,0,1,.885,2.385,3.345,3.345,0,0,1-.435,1.71,5.832,5.832,0,0,1-1.08,1.35,9.775,9.775,0,0,1-1.425,1.1q-.78.495-1.47.975-1.35.93-2.565,1.83a12.465,12.465,0,0,0-2.115,1.965A8.462,8.462,0,0,0,55.26-3.18,8.756,8.756,0,0,0,54.735,0h15.42V-3.66h-9.93a9.506,9.506,0,0,1,1.8-1.89q1.02-.81,2.1-1.515T66.27-8.49a11.474,11.474,0,0,0,1.9-1.6,7.171,7.171,0,0,0,1.35-2.025,6.651,6.651,0,0,0,.51-2.73,6.346,6.346,0,0,0-.585-2.76,6.126,6.126,0,0,0-1.575-2.07,7.071,7.071,0,0,0-2.295-1.29,8.361,8.361,0,0,0-2.745-.45,8.181,8.181,0,0,0-3.345.645,6.523,6.523,0,0,0-2.415,1.8,7.785,7.785,0,0,0-1.44,2.7A10.076,10.076,0,0,0,55.215-12.93Z" transform="translate(1093 5543)" fill="#989898"/>
    <path id="Контур_65" data-name="Контур 65" d="M-42.84-10.02v3.66h9.03v-3.66Zm21.51-2.64V0h4.26V-12.66h2.94v-2.85h-2.94v-.93a1.99,1.99,0,0,1,.375-1.365,1.634,1.634,0,0,1,1.245-.4,13.092,13.092,0,0,1,1.56.09V-21.3q-.54-.03-1.11-.075t-1.14-.045a5.227,5.227,0,0,0-3.9,1.32,4.647,4.647,0,0,0-1.29,3.39v1.2h-2.55v2.85Zm9.78-2.85V0h4.26V-15.51Zm4.26-2.4v-3.51h-4.26v3.51Zm3.48-3.51V0H.45V-21.42Zm18.06,12H7.32a4.89,4.89,0,0,1,.195-1.02,3.132,3.132,0,0,1,.57-1.08,3.227,3.227,0,0,1,1.08-.855,3.706,3.706,0,0,1,1.695-.345,2.992,2.992,0,0,1,2.325.84A4.924,4.924,0,0,1,14.25-9.42ZM7.32-6.72H18.51a10.95,10.95,0,0,0-.3-3.45,8.445,8.445,0,0,0-1.365-2.94,6.885,6.885,0,0,0-2.415-2.055,7.375,7.375,0,0,0-3.45-.765,8.033,8.033,0,0,0-3.225.63A7.625,7.625,0,0,0,5.25-13.575a7.6,7.6,0,0,0-1.62,2.6,9.046,9.046,0,0,0-.57,3.24,9.444,9.444,0,0,0,.555,3.3A7.494,7.494,0,0,0,5.19-1.86,6.861,6.861,0,0,0,7.68-.2a8.858,8.858,0,0,0,3.3.585,8.124,8.124,0,0,0,4.5-1.2A7.119,7.119,0,0,0,18.24-4.8H14.49a2.676,2.676,0,0,1-1.14,1.365,3.8,3.8,0,0,1-2.22.645,3.808,3.808,0,0,1-2.76-.93A4.307,4.307,0,0,1,7.32-6.72ZM39.51,0V-21H36.12a4.637,4.637,0,0,1-.75,2.01,4.564,4.564,0,0,1-1.4,1.305,5.6,5.6,0,0,1-1.86.69,10.084,10.084,0,0,1-2.145.165v3.21h5.28V0Z" transform="translate(821 5782)" fill="#fff"/>
    <path id="Контур_62" data-name="Контур 62" d="M-42.84-10.02v3.66h9.03v-3.66Zm21.51-2.64V0h4.26V-12.66h2.94v-2.85h-2.94v-.93a1.99,1.99,0,0,1,.375-1.365,1.634,1.634,0,0,1,1.245-.4,13.092,13.092,0,0,1,1.56.09V-21.3q-.54-.03-1.11-.075t-1.14-.045a5.227,5.227,0,0,0-3.9,1.32,4.647,4.647,0,0,0-1.29,3.39v1.2h-2.55v2.85Zm9.78-2.85V0h4.26V-15.51Zm4.26-2.4v-3.51h-4.26v3.51Zm3.48-3.51V0H.45V-21.42Zm18.06,12H7.32a4.89,4.89,0,0,1,.195-1.02,3.132,3.132,0,0,1,.57-1.08,3.227,3.227,0,0,1,1.08-.855,3.706,3.706,0,0,1,1.695-.345,2.992,2.992,0,0,1,2.325.84A4.924,4.924,0,0,1,14.25-9.42ZM7.32-6.72H18.51a10.95,10.95,0,0,0-.3-3.45,8.445,8.445,0,0,0-1.365-2.94,6.885,6.885,0,0,0-2.415-2.055,7.375,7.375,0,0,0-3.45-.765,8.033,8.033,0,0,0-3.225.63A7.625,7.625,0,0,0,5.25-13.575a7.6,7.6,0,0,0-1.62,2.6,9.046,9.046,0,0,0-.57,3.24,9.444,9.444,0,0,0,.555,3.3A7.494,7.494,0,0,0,5.19-1.86,6.861,6.861,0,0,0,7.68-.2a8.858,8.858,0,0,0,3.3.585,8.124,8.124,0,0,0,4.5-1.2A7.119,7.119,0,0,0,18.24-4.8H14.49a2.676,2.676,0,0,1-1.14,1.365,3.8,3.8,0,0,1-2.22.645,3.808,3.808,0,0,1-2.76-.93A4.307,4.307,0,0,1,7.32-6.72ZM39.51,0V-21H36.12a4.637,4.637,0,0,1-.75,2.01,4.564,4.564,0,0,1-1.4,1.305,5.6,5.6,0,0,1-1.86.69,10.084,10.084,0,0,1-2.145.165v3.21h5.28V0ZM-42.84,26.98v3.66h9.03V26.98Zm21.51-2.64V37h4.26V24.34h2.94V21.49h-2.94v-.93a1.99,1.99,0,0,1,.375-1.365,1.634,1.634,0,0,1,1.245-.4,13.092,13.092,0,0,1,1.56.09V15.7q-.54-.03-1.11-.075t-1.14-.045a5.227,5.227,0,0,0-3.9,1.32,4.647,4.647,0,0,0-1.29,3.39v1.2h-2.55v2.85Zm9.78-2.85V37h4.26V21.49Zm4.26-2.4V15.58h-4.26v3.51Zm3.48-3.51V37H.45V15.58Zm18.06,12H7.32a4.89,4.89,0,0,1,.195-1.02,3.132,3.132,0,0,1,.57-1.08,3.227,3.227,0,0,1,1.08-.855,3.706,3.706,0,0,1,1.695-.345,2.992,2.992,0,0,1,2.325.84A4.924,4.924,0,0,1,14.25,27.58Zm-6.93,2.7H18.51a10.95,10.95,0,0,0-.3-3.45,8.445,8.445,0,0,0-1.365-2.94,6.885,6.885,0,0,0-2.415-2.055,7.375,7.375,0,0,0-3.45-.765,8.033,8.033,0,0,0-3.225.63A7.5,7.5,0,0,0,3.63,26.02a9.046,9.046,0,0,0-.57,3.24,9.444,9.444,0,0,0,.555,3.3A7.494,7.494,0,0,0,5.19,35.14a6.861,6.861,0,0,0,2.49,1.665,8.859,8.859,0,0,0,3.3.585,8.124,8.124,0,0,0,4.5-1.2,7.119,7.119,0,0,0,2.76-3.99H14.49a2.676,2.676,0,0,1-1.14,1.365,3.8,3.8,0,0,1-2.22.645,3.808,3.808,0,0,1-2.76-.93A4.307,4.307,0,0,1,7.32,30.28Zm27.27-5.79v3q.78,0,1.635.045a4.96,4.96,0,0,1,1.575.33,2.667,2.667,0,0,1,1.185.915,3.051,3.051,0,0,1,.465,1.83,3.075,3.075,0,0,1-.99,2.415,3.515,3.515,0,0,1-2.43.885,3.62,3.62,0,0,1-1.6-.33,3.281,3.281,0,0,1-1.125-.885,3.946,3.946,0,0,1-.69-1.32,6.06,6.06,0,0,1-.27-1.6H28.29a8.417,8.417,0,0,0,.525,3.24A6.583,6.583,0,0,0,30.39,35.4a6.765,6.765,0,0,0,2.475,1.485,10.146,10.146,0,0,0,6.165.06,7.618,7.618,0,0,0,2.49-1.32,6.421,6.421,0,0,0,1.725-2.16,6.486,6.486,0,0,0,.645-2.94,4.926,4.926,0,0,0-.99-3.09,4.573,4.573,0,0,0-2.73-1.68v-.06a3.686,3.686,0,0,0,2.205-1.59,4.968,4.968,0,0,0,.735-2.7,4.85,4.85,0,0,0-.63-2.49,6.091,6.091,0,0,0-1.635-1.83,7.173,7.173,0,0,0-2.265-1.125,8.8,8.8,0,0,0-2.52-.375,7.892,7.892,0,0,0-2.94.525,6.511,6.511,0,0,0-2.265,1.485,6.748,6.748,0,0,0-1.47,2.3A8.926,8.926,0,0,0,28.8,22.84h4.05a4.123,4.123,0,0,1,.8-2.685A2.9,2.9,0,0,1,36.09,19.09a3.22,3.22,0,0,1,2.07.72,2.5,2.5,0,0,1,.9,2.07,2.228,2.228,0,0,1-.435,1.44,2.792,2.792,0,0,1-1.11.825,4.627,4.627,0,0,1-1.455.345A9.011,9.011,0,0,1,34.59,24.49Z" transform="translate(1093 5782)" fill="#fff"/>
    <path id="Контур_61" data-name="Контур 61" d="M-42.84-10.02v3.66h9.03v-3.66Zm21.51-2.64V0h4.26V-12.66h2.94v-2.85h-2.94v-.93a1.99,1.99,0,0,1,.375-1.365,1.634,1.634,0,0,1,1.245-.4,13.092,13.092,0,0,1,1.56.09V-21.3q-.54-.03-1.11-.075t-1.14-.045a5.227,5.227,0,0,0-3.9,1.32,4.647,4.647,0,0,0-1.29,3.39v1.2h-2.55v2.85Zm9.78-2.85V0h4.26V-15.51Zm4.26-2.4v-3.51h-4.26v3.51Zm3.48-3.51V0H.45V-21.42Zm18.06,12H7.32a4.89,4.89,0,0,1,.195-1.02,3.132,3.132,0,0,1,.57-1.08,3.227,3.227,0,0,1,1.08-.855,3.706,3.706,0,0,1,1.695-.345,2.992,2.992,0,0,1,2.325.84A4.924,4.924,0,0,1,14.25-9.42ZM7.32-6.72H18.51a10.95,10.95,0,0,0-.3-3.45,8.445,8.445,0,0,0-1.365-2.94,6.885,6.885,0,0,0-2.415-2.055,7.375,7.375,0,0,0-3.45-.765,8.033,8.033,0,0,0-3.225.63A7.625,7.625,0,0,0,5.25-13.575a7.6,7.6,0,0,0-1.62,2.6,9.046,9.046,0,0,0-.57,3.24,9.444,9.444,0,0,0,.555,3.3A7.494,7.494,0,0,0,5.19-1.86,6.861,6.861,0,0,0,7.68-.2a8.858,8.858,0,0,0,3.3.585,8.124,8.124,0,0,0,4.5-1.2A7.119,7.119,0,0,0,18.24-4.8H14.49a2.676,2.676,0,0,1-1.14,1.365,3.8,3.8,0,0,1-2.22.645,3.808,3.808,0,0,1-2.76-.93A4.307,4.307,0,0,1,7.32-6.72ZM39.51,0V-21H36.12a4.637,4.637,0,0,1-.75,2.01,4.564,4.564,0,0,1-1.4,1.305,5.6,5.6,0,0,1-1.86.69,10.084,10.084,0,0,1-2.145.165v3.21h5.28V0ZM-42.84,26.98v3.66h9.03V26.98Zm21.51-2.64V37h4.26V24.34h2.94V21.49h-2.94v-.93a1.99,1.99,0,0,1,.375-1.365,1.634,1.634,0,0,1,1.245-.4,13.092,13.092,0,0,1,1.56.09V15.7q-.54-.03-1.11-.075t-1.14-.045a5.227,5.227,0,0,0-3.9,1.32,4.647,4.647,0,0,0-1.29,3.39v1.2h-2.55v2.85Zm9.78-2.85V37h4.26V21.49Zm4.26-2.4V15.58h-4.26v3.51Zm3.48-3.51V37H.45V15.58Zm18.06,12H7.32a4.89,4.89,0,0,1,.195-1.02,3.132,3.132,0,0,1,.57-1.08,3.227,3.227,0,0,1,1.08-.855,3.706,3.706,0,0,1,1.695-.345,2.992,2.992,0,0,1,2.325.84A4.924,4.924,0,0,1,14.25,27.58Zm-6.93,2.7H18.51a10.95,10.95,0,0,0-.3-3.45,8.445,8.445,0,0,0-1.365-2.94,6.885,6.885,0,0,0-2.415-2.055,7.375,7.375,0,0,0-3.45-.765,8.033,8.033,0,0,0-3.225.63A7.5,7.5,0,0,0,3.63,26.02a9.046,9.046,0,0,0-.57,3.24,9.444,9.444,0,0,0,.555,3.3A7.494,7.494,0,0,0,5.19,35.14a6.861,6.861,0,0,0,2.49,1.665,8.859,8.859,0,0,0,3.3.585,8.124,8.124,0,0,0,4.5-1.2,7.119,7.119,0,0,0,2.76-3.99H14.49a2.676,2.676,0,0,1-1.14,1.365,3.8,3.8,0,0,1-2.22.645,3.808,3.808,0,0,1-2.76-.93A4.307,4.307,0,0,1,7.32,30.28Zm21.54-6.21h4.08a8.929,8.929,0,0,1,.165-1.695,5.258,5.258,0,0,1,.555-1.56,3.247,3.247,0,0,1,1.035-1.14,2.752,2.752,0,0,1,1.575-.435,3.125,3.125,0,0,1,2.265.855,3.161,3.161,0,0,1,.885,2.385,3.345,3.345,0,0,1-.435,1.71,5.832,5.832,0,0,1-1.08,1.35,9.775,9.775,0,0,1-1.425,1.095q-.78.495-1.47.975-1.35.93-2.565,1.83a12.466,12.466,0,0,0-2.115,1.965,8.462,8.462,0,0,0-1.425,2.415A8.756,8.756,0,0,0,28.38,37H43.8V33.34H33.87a9.506,9.506,0,0,1,1.8-1.89q1.02-.81,2.1-1.515t2.145-1.425a11.474,11.474,0,0,0,1.9-1.6,7.17,7.17,0,0,0,1.35-2.025,6.652,6.652,0,0,0,.51-2.73,6.346,6.346,0,0,0-.585-2.76,6.126,6.126,0,0,0-1.575-2.07,7.071,7.071,0,0,0-2.3-1.29,8.361,8.361,0,0,0-2.745-.45,8.181,8.181,0,0,0-3.345.645,6.523,6.523,0,0,0-2.415,1.8,7.785,7.785,0,0,0-1.44,2.7A10.076,10.076,0,0,0,28.86,24.07Zm-71.7,39.91v3.66h9.03V63.98Zm21.51-2.64V74h4.26V61.34h2.94V58.49h-2.94v-.93a1.99,1.99,0,0,1,.375-1.365,1.634,1.634,0,0,1,1.245-.4,13.092,13.092,0,0,1,1.56.09V52.7q-.54-.03-1.11-.075t-1.14-.045a5.227,5.227,0,0,0-3.9,1.32,4.647,4.647,0,0,0-1.29,3.39v1.2h-2.55v2.85Zm9.78-2.85V74h4.26V58.49Zm4.26-2.4V52.58h-4.26v3.51Zm3.48-3.51V74H.45V52.58Zm18.06,12H7.32a4.89,4.89,0,0,1,.195-1.02,3.132,3.132,0,0,1,.57-1.08,3.227,3.227,0,0,1,1.08-.855,3.706,3.706,0,0,1,1.695-.345,2.992,2.992,0,0,1,2.325.84A4.924,4.924,0,0,1,14.25,64.58Zm-6.93,2.7H18.51a10.95,10.95,0,0,0-.3-3.45,8.445,8.445,0,0,0-1.365-2.94,6.885,6.885,0,0,0-2.415-2.055,7.375,7.375,0,0,0-3.45-.765,8.033,8.033,0,0,0-3.225.63A7.5,7.5,0,0,0,3.63,63.02a9.046,9.046,0,0,0-.57,3.24,9.444,9.444,0,0,0,.555,3.3A7.494,7.494,0,0,0,5.19,72.14a6.861,6.861,0,0,0,2.49,1.665,8.859,8.859,0,0,0,3.3.585,8.124,8.124,0,0,0,4.5-1.2,7.119,7.119,0,0,0,2.76-3.99H14.49a2.676,2.676,0,0,1-1.14,1.365,3.8,3.8,0,0,1-2.22.645,3.808,3.808,0,0,1-2.76-.93A4.307,4.307,0,0,1,7.32,67.28Zm27.27-5.79v3q.78,0,1.635.045a4.961,4.961,0,0,1,1.575.33,2.667,2.667,0,0,1,1.185.915,3.591,3.591,0,0,1-.525,4.245,3.515,3.515,0,0,1-2.43.885,3.62,3.62,0,0,1-1.6-.33,3.281,3.281,0,0,1-1.125-.885,3.946,3.946,0,0,1-.69-1.32,6.06,6.06,0,0,1-.27-1.605H28.29a8.417,8.417,0,0,0,.525,3.24,6.583,6.583,0,0,0,1.575,2.385,6.765,6.765,0,0,0,2.475,1.485,10.146,10.146,0,0,0,6.165.06,7.619,7.619,0,0,0,2.49-1.32,6.421,6.421,0,0,0,1.725-2.16,6.486,6.486,0,0,0,.645-2.94,4.926,4.926,0,0,0-.99-3.09,4.573,4.573,0,0,0-2.73-1.68v-.06a3.686,3.686,0,0,0,2.205-1.59,4.968,4.968,0,0,0,.735-2.7,4.85,4.85,0,0,0-.63-2.49,6.091,6.091,0,0,0-1.635-1.83,7.173,7.173,0,0,0-2.265-1.125,8.8,8.8,0,0,0-2.52-.375,7.892,7.892,0,0,0-2.94.525,6.511,6.511,0,0,0-2.265,1.485,6.748,6.748,0,0,0-1.47,2.3A8.926,8.926,0,0,0,28.8,59.84h4.05a4.123,4.123,0,0,1,.8-2.685A2.9,2.9,0,0,1,36.09,56.09a3.22,3.22,0,0,1,2.07.72,2.5,2.5,0,0,1,.9,2.07,2.228,2.228,0,0,1-.435,1.44,2.792,2.792,0,0,1-1.11.825,4.627,4.627,0,0,1-1.455.345A9.01,9.01,0,0,1,34.59,61.49Z" transform="translate(1365 5782)" fill="#fff"/>
    <path id="Контур_59" data-name="Контур 59" d="M-42.84-10.02v3.66h9.03v-3.66Zm21.51-2.64V0h4.26V-12.66h2.94v-2.85h-2.94v-.93a1.99,1.99,0,0,1,.375-1.365,1.634,1.634,0,0,1,1.245-.4,13.092,13.092,0,0,1,1.56.09V-21.3q-.54-.03-1.11-.075t-1.14-.045a5.227,5.227,0,0,0-3.9,1.32,4.647,4.647,0,0,0-1.29,3.39v1.2h-2.55v2.85Zm9.78-2.85V0h4.26V-15.51Zm4.26-2.4v-3.51h-4.26v3.51Zm3.48-3.51V0H.45V-21.42Zm18.06,12H7.32a4.89,4.89,0,0,1,.195-1.02,3.132,3.132,0,0,1,.57-1.08,3.227,3.227,0,0,1,1.08-.855,3.706,3.706,0,0,1,1.695-.345,2.992,2.992,0,0,1,2.325.84A4.924,4.924,0,0,1,14.25-9.42ZM7.32-6.72H18.51a10.95,10.95,0,0,0-.3-3.45,8.445,8.445,0,0,0-1.365-2.94,6.885,6.885,0,0,0-2.415-2.055,7.375,7.375,0,0,0-3.45-.765,8.033,8.033,0,0,0-3.225.63A7.625,7.625,0,0,0,5.25-13.575a7.6,7.6,0,0,0-1.62,2.6,9.046,9.046,0,0,0-.57,3.24,9.444,9.444,0,0,0,.555,3.3A7.494,7.494,0,0,0,5.19-1.86,6.861,6.861,0,0,0,7.68-.2a8.858,8.858,0,0,0,3.3.585,8.124,8.124,0,0,0,4.5-1.2A7.119,7.119,0,0,0,18.24-4.8H14.49a2.676,2.676,0,0,1-1.14,1.365,3.8,3.8,0,0,1-2.22.645,3.808,3.808,0,0,1-2.76-.93A4.307,4.307,0,0,1,7.32-6.72ZM39.51,0V-21H36.12a4.637,4.637,0,0,1-.75,2.01,4.564,4.564,0,0,1-1.4,1.305,5.6,5.6,0,0,1-1.86.69,10.084,10.084,0,0,1-2.145.165v3.21h5.28V0ZM-42.84,26.98v3.66h9.03V26.98Zm21.51-2.64V37h4.26V24.34h2.94V21.49h-2.94v-.93a1.99,1.99,0,0,1,.375-1.365,1.634,1.634,0,0,1,1.245-.4,13.092,13.092,0,0,1,1.56.09V15.7q-.54-.03-1.11-.075t-1.14-.045a5.227,5.227,0,0,0-3.9,1.32,4.647,4.647,0,0,0-1.29,3.39v1.2h-2.55v2.85Zm9.78-2.85V37h4.26V21.49Zm4.26-2.4V15.58h-4.26v3.51Zm3.48-3.51V37H.45V15.58Zm18.06,12H7.32a4.89,4.89,0,0,1,.195-1.02,3.132,3.132,0,0,1,.57-1.08,3.227,3.227,0,0,1,1.08-.855,3.706,3.706,0,0,1,1.695-.345,2.992,2.992,0,0,1,2.325.84A4.924,4.924,0,0,1,14.25,27.58Zm-6.93,2.7H18.51a10.95,10.95,0,0,0-.3-3.45,8.445,8.445,0,0,0-1.365-2.94,6.885,6.885,0,0,0-2.415-2.055,7.375,7.375,0,0,0-3.45-.765,8.033,8.033,0,0,0-3.225.63A7.5,7.5,0,0,0,3.63,26.02a9.046,9.046,0,0,0-.57,3.24,9.444,9.444,0,0,0,.555,3.3A7.494,7.494,0,0,0,5.19,35.14a6.861,6.861,0,0,0,2.49,1.665,8.859,8.859,0,0,0,3.3.585,8.124,8.124,0,0,0,4.5-1.2,7.119,7.119,0,0,0,2.76-3.99H14.49a2.676,2.676,0,0,1-1.14,1.365,3.8,3.8,0,0,1-2.22.645,3.808,3.808,0,0,1-2.76-.93A4.307,4.307,0,0,1,7.32,30.28Zm21.54-6.21h4.08a8.929,8.929,0,0,1,.165-1.695,5.258,5.258,0,0,1,.555-1.56,3.247,3.247,0,0,1,1.035-1.14,2.752,2.752,0,0,1,1.575-.435,3.125,3.125,0,0,1,2.265.855,3.161,3.161,0,0,1,.885,2.385,3.345,3.345,0,0,1-.435,1.71,5.832,5.832,0,0,1-1.08,1.35,9.775,9.775,0,0,1-1.425,1.095q-.78.495-1.47.975-1.35.93-2.565,1.83a12.466,12.466,0,0,0-2.115,1.965,8.462,8.462,0,0,0-1.425,2.415A8.756,8.756,0,0,0,28.38,37H43.8V33.34H33.87a9.506,9.506,0,0,1,1.8-1.89q1.02-.81,2.1-1.515t2.145-1.425a11.474,11.474,0,0,0,1.9-1.6,7.17,7.17,0,0,0,1.35-2.025,6.652,6.652,0,0,0,.51-2.73,6.346,6.346,0,0,0-.585-2.76,6.126,6.126,0,0,0-1.575-2.07,7.071,7.071,0,0,0-2.3-1.29,8.361,8.361,0,0,0-2.745-.45,8.181,8.181,0,0,0-3.345.645,6.523,6.523,0,0,0-2.415,1.8,7.785,7.785,0,0,0-1.44,2.7A10.076,10.076,0,0,0,28.86,24.07Z" transform="translate(1093 5601)" fill="#fff"/>
    <path id="Контур_56" data-name="Контур 56" d="M821,3220" transform="translate(0 2460)" fill="none" stroke="#707070" stroke-width="1"/>
    <path id="Контур_55" data-name="Контур 55" d="M928,3253s32.23-2.99,32.23-99.59,26.7-82.518,26.7-82.518" transform="translate(0 2460)" fill="none" stroke="#fff" stroke-width="3"/>
    <line id="Линия_33" data-name="Линия 33" x2="64" transform="translate(925.5 5713.5)" fill="none" stroke="#fff" stroke-width="3"/>
    <line id="Линия_34" data-name="Линия 34" x2="64" transform="translate(1196.5 5713.5)" fill="none" stroke="#fff" stroke-width="3"/>
  </g>
</svg>
