<svg xmlns="http://www.w3.org/2000/svg" width="1177" height="161" viewBox="0 0 1177 161">
  <g id="Сгруппировать_6" data-name="Сгруппировать 6" transform="translate(-450 -2837)">
    <g id="Прямоугольник_14" data-name="Прямоугольник 14" transform="translate(450 2837)" fill="#151a40" stroke="#707070" stroke-width="1">
      <rect width="1177" height="161" stroke="none"/>
      <rect x="0.5" y="0.5" width="1176" height="160" fill="none"/>
    </g>
    <path id="Контур_29" data-name="Контур 29" d="M-64.32-20.68V0h5.68V-12a5.845,5.845,0,0,1,.44-2.46,3.972,3.972,0,0,1,1.06-1.44,3.518,3.518,0,0,1,1.28-.68,4.256,4.256,0,0,1,1.06-.18,3.772,3.772,0,0,1,2.06.46,2.553,2.553,0,0,1,1,1.22,5.109,5.109,0,0,1,.34,1.66q.04.9.04,1.82V0h5.68V-11.52a12.88,12.88,0,0,1,.14-1.9,4.805,4.805,0,0,1,.56-1.68,3.333,3.333,0,0,1,1.16-1.2,3.633,3.633,0,0,1,1.94-.46,3.834,3.834,0,0,1,1.9.4,2.664,2.664,0,0,1,1.06,1.08,4.16,4.16,0,0,1,.44,1.6q.08.92.08,1.96V0h5.68V-13.84a9.327,9.327,0,0,0-.56-3.42,5.864,5.864,0,0,0-1.56-2.3,6.12,6.12,0,0,0-2.4-1.28,11.029,11.029,0,0,0-3.04-.4,6.647,6.647,0,0,0-3.74,1.04,8.8,8.8,0,0,0-2.5,2.4,5.03,5.03,0,0,0-2.46-2.68,8.324,8.324,0,0,0-3.58-.76,7.314,7.314,0,0,0-3.62.88,8.089,8.089,0,0,0-2.7,2.48h-.08v-2.8Zm35.84,6.36a6.6,6.6,0,0,1,1-3.32,6.81,6.81,0,0,1,2.24-2.12,9.761,9.761,0,0,1,3.06-1.14,17.4,17.4,0,0,1,3.42-.34,23.178,23.178,0,0,1,3.16.22,9.667,9.667,0,0,1,2.92.86,5.753,5.753,0,0,1,2.16,1.78,4.974,4.974,0,0,1,.84,3.02V-4.6a21.61,21.61,0,0,0,.16,2.68A4.845,4.845,0,0,0-8.96,0h-5.76a8.151,8.151,0,0,1-.26-.98A8.534,8.534,0,0,1-15.12-2a7.4,7.4,0,0,1-3.2,1.96,12.844,12.844,0,0,1-3.76.56A10.158,10.158,0,0,1-24.84.16,6.321,6.321,0,0,1-27.08-.96a5.214,5.214,0,0,1-1.5-1.92,6.492,6.492,0,0,1-.54-2.76,6.03,6.03,0,0,1,.62-2.9,5.184,5.184,0,0,1,1.6-1.82,7.169,7.169,0,0,1,2.24-1.02,23.913,23.913,0,0,1,2.54-.54q1.28-.2,2.52-.32a15.154,15.154,0,0,0,2.2-.36,3.835,3.835,0,0,0,1.52-.7,1.536,1.536,0,0,0,.52-1.34,3.014,3.014,0,0,0-.3-1.46,2.206,2.206,0,0,0-.8-.84,3.147,3.147,0,0,0-1.16-.4,9.492,9.492,0,0,0-1.42-.1,4.311,4.311,0,0,0-2.64.72,3.214,3.214,0,0,0-1.12,2.4Zm13.12,4.2a2.548,2.548,0,0,1-.9.5,9.192,9.192,0,0,1-1.16.3q-.62.12-1.3.2t-1.36.2a10.257,10.257,0,0,0-1.26.32,3.725,3.725,0,0,0-1.08.54,2.567,2.567,0,0,0-.74.86,2.767,2.767,0,0,0-.28,1.32,2.672,2.672,0,0,0,.28,1.28,2.147,2.147,0,0,0,.76.82,3.208,3.208,0,0,0,1.12.42,7.149,7.149,0,0,0,1.32.12,5.021,5.021,0,0,0,2.6-.56A3.746,3.746,0,0,0-16-5.14a4.285,4.285,0,0,0,.54-1.58A10.854,10.854,0,0,0-15.36-8ZM-.88-6.72h-5.4a6.954,6.954,0,0,0,.94,3.46,6.864,6.864,0,0,0,2.2,2.22A9.291,9.291,0,0,0-.08.16,17.136,17.136,0,0,0,3.44.52,17.6,17.6,0,0,0,6.9.18,8.772,8.772,0,0,0,9.92-1a6.562,6.562,0,0,0,2.14-2.22,6.594,6.594,0,0,0,.82-3.42,4.813,4.813,0,0,0-.56-2.42,5.126,5.126,0,0,0-1.48-1.64,7.961,7.961,0,0,0-2.1-1.06,24,24,0,0,0-2.42-.68q-1.2-.28-2.36-.52A18.252,18.252,0,0,1,1.9-13.5a4.317,4.317,0,0,1-1.46-.78,1.558,1.558,0,0,1-.56-1.24A1.532,1.532,0,0,1,.2-16.54a2.1,2.1,0,0,1,.78-.58A3.472,3.472,0,0,1,2-17.38a9.8,9.8,0,0,1,1.04-.06,5.668,5.668,0,0,1,2.64.58,2.485,2.485,0,0,1,1.24,2.22h5.4a6.785,6.785,0,0,0-.98-3.18,6.474,6.474,0,0,0-2.06-2.02,8.623,8.623,0,0,0-2.82-1.08,16.384,16.384,0,0,0-3.26-.32,17.761,17.761,0,0,0-3.28.3A9.032,9.032,0,0,0-2.96-19.9a5.75,5.75,0,0,0-2.06,2.02A6.222,6.222,0,0,0-5.8-14.6a4.42,4.42,0,0,0,.56,2.3,4.863,4.863,0,0,0,1.48,1.56,8.27,8.27,0,0,0,2.1,1q1.18.38,2.42.66A33.948,33.948,0,0,1,5.5-7.8q1.7.64,1.7,1.92a2.1,2.1,0,0,1-.36,1.26,2.728,2.728,0,0,1-.9.8,4.286,4.286,0,0,1-1.2.44,6.075,6.075,0,0,1-1.26.14,6.5,6.5,0,0,1-1.62-.2A4.2,4.2,0,0,1,.48-4.06,3.32,3.32,0,0,1-.5-5.14,3.115,3.115,0,0,1-.88-6.72ZM23.4-20.68v-6.2H17.72v6.2H14.28v3.8h3.44v12.2a5.284,5.284,0,0,0,.52,2.52A3.706,3.706,0,0,0,19.66-.68a5.9,5.9,0,0,0,2.08.7,16.582,16.582,0,0,0,2.5.18q.84,0,1.72-.04A13.516,13.516,0,0,0,27.56,0V-4.4a7.957,7.957,0,0,1-.84.12q-.44.04-.92.04a2.78,2.78,0,0,1-1.92-.48,2.78,2.78,0,0,1-.48-1.92V-16.88h4.16v-3.8Zm20.8,8.12H34.96a6.52,6.52,0,0,1,.26-1.36,4.176,4.176,0,0,1,.76-1.44,4.3,4.3,0,0,1,1.44-1.14,4.941,4.941,0,0,1,2.26-.46,3.989,3.989,0,0,1,3.1,1.12A6.565,6.565,0,0,1,44.2-12.56Zm-9.24,3.6H49.88a14.6,14.6,0,0,0-.4-4.6,11.259,11.259,0,0,0-1.82-3.92,9.181,9.181,0,0,0-3.22-2.74,9.833,9.833,0,0,0-4.6-1.02,10.711,10.711,0,0,0-4.3.84,10.167,10.167,0,0,0-3.34,2.3,10.138,10.138,0,0,0-2.16,3.46,12.061,12.061,0,0,0-.76,4.32,12.591,12.591,0,0,0,.74,4.4,9.992,9.992,0,0,0,2.1,3.44A9.149,9.149,0,0,0,35.44-.26a11.811,11.811,0,0,0,4.4.78,10.832,10.832,0,0,0,6-1.6A9.492,9.492,0,0,0,49.52-6.4h-5A3.568,3.568,0,0,1,43-4.58a5.064,5.064,0,0,1-2.96.86,5.078,5.078,0,0,1-3.68-1.24A5.742,5.742,0,0,1,34.96-8.96ZM53.24-20.68V0h5.68V-9.32a11.431,11.431,0,0,1,.28-2.6,5.694,5.694,0,0,1,.94-2.1,4.572,4.572,0,0,1,1.74-1.42,6.051,6.051,0,0,1,2.64-.52,10.144,10.144,0,0,1,1.08.06q.56.06.96.14v-5.28a4.43,4.43,0,0,0-1.24-.2,6.783,6.783,0,0,0-2.08.32,7.622,7.622,0,0,0-1.88.9,7.076,7.076,0,0,0-1.56,1.4,6.985,6.985,0,0,0-1.08,1.78h-.08v-3.84Z" transform="translate(592 2908)" fill="#fff"/>
    <rect id="Прямоугольник_15" data-name="Прямоугольник 15" width="214" height="66" transform="translate(714 2863)" fill="#fff"/>
    <path id="Контур_28" data-name="Контур 28" d="M-84.06-12.66V0h4.26V-12.66h2.94v-2.85H-79.8v-.93a1.99,1.99,0,0,1,.375-1.365,1.634,1.634,0,0,1,1.245-.4,13.092,13.092,0,0,1,1.56.09V-21.3q-.54-.03-1.11-.075t-1.14-.045a5.227,5.227,0,0,0-3.9,1.32,4.647,4.647,0,0,0-1.29,3.39v1.2h-2.55v2.85Zm9.78-2.85V0h4.26V-15.51Zm4.26-2.4v-3.51h-4.26v3.51Zm3.36,2.4V0h4.26V-6.99a8.573,8.573,0,0,1,.21-1.95,4.27,4.27,0,0,1,.7-1.575A3.429,3.429,0,0,1-60.18-11.58a4.539,4.539,0,0,1,1.98-.39,7.608,7.608,0,0,1,.81.045q.42.045.72.105v-3.96a3.322,3.322,0,0,0-.93-.15,5.087,5.087,0,0,0-1.56.24,5.717,5.717,0,0,0-1.41.675,5.307,5.307,0,0,0-1.17,1.05,5.239,5.239,0,0,0-.81,1.335h-.06v-2.88ZM-51.69-5.04h-4.05a5.215,5.215,0,0,0,.705,2.6A5.148,5.148,0,0,0-53.385-.78a6.968,6.968,0,0,0,2.3.9,12.852,12.852,0,0,0,2.64.27,13.2,13.2,0,0,0,2.6-.255A6.579,6.579,0,0,0-43.59-.75a4.921,4.921,0,0,0,1.6-1.665A4.946,4.946,0,0,0-41.37-4.98,3.61,3.61,0,0,0-41.79-6.8a3.845,3.845,0,0,0-1.11-1.23,5.971,5.971,0,0,0-1.575-.795,18,18,0,0,0-1.815-.51q-.9-.21-1.77-.39a13.689,13.689,0,0,1-1.545-.4,3.238,3.238,0,0,1-1.1-.585,1.168,1.168,0,0,1-.42-.93,1.149,1.149,0,0,1,.24-.765,1.575,1.575,0,0,1,.585-.435,2.6,2.6,0,0,1,.765-.195,7.353,7.353,0,0,1,.78-.045,4.251,4.251,0,0,1,1.98.435,1.864,1.864,0,0,1,.93,1.665h4.05a5.089,5.089,0,0,0-.735-2.385A4.855,4.855,0,0,0-44.07-14.88a6.467,6.467,0,0,0-2.115-.81,12.288,12.288,0,0,0-2.445-.24,13.321,13.321,0,0,0-2.46.225,6.774,6.774,0,0,0-2.16.78A4.312,4.312,0,0,0-54.8-13.41a4.666,4.666,0,0,0-.585,2.46,3.315,3.315,0,0,0,.42,1.725,3.647,3.647,0,0,0,1.11,1.17,6.2,6.2,0,0,0,1.575.75q.885.285,1.815.495a25.461,25.461,0,0,1,3.555.96q1.275.48,1.275,1.44a1.576,1.576,0,0,1-.27.945,2.046,2.046,0,0,1-.675.6,3.215,3.215,0,0,1-.9.33,4.557,4.557,0,0,1-.945.105,4.873,4.873,0,0,1-1.215-.15,3.151,3.151,0,0,1-1.035-.465,2.49,2.49,0,0,1-.735-.81A2.336,2.336,0,0,1-51.69-5.04Zm18.21-10.47v-4.65h-4.26v4.65h-2.58v2.85h2.58v9.15a3.963,3.963,0,0,0,.39,1.89A2.779,2.779,0,0,0-36.285-.51a4.422,4.422,0,0,0,1.56.525A12.436,12.436,0,0,0-32.85.15q.63,0,1.29-.03A10.137,10.137,0,0,0-30.36,0V-3.3a5.968,5.968,0,0,1-.63.09q-.33.03-.69.03a2.085,2.085,0,0,1-1.44-.36,2.085,2.085,0,0,1-.36-1.44v-7.68h3.12v-2.85Zm24.06,5.46h4.17a5.835,5.835,0,0,0-.72-2.595A5.861,5.861,0,0,0-7.6-14.475a7.086,7.086,0,0,0-2.28-1.1,9.724,9.724,0,0,0-2.655-.36,8.46,8.46,0,0,0-3.36.63,7.071,7.071,0,0,0-2.49,1.755,7.526,7.526,0,0,0-1.545,2.67A10.333,10.333,0,0,0-20.46-7.53a8.687,8.687,0,0,0,.57,3.195,7.446,7.446,0,0,0,1.59,2.5A7.084,7.084,0,0,0-15.825-.2a8.489,8.489,0,0,0,3.2.585A7.746,7.746,0,0,0-7.56-1.23a7.028,7.028,0,0,0,2.4-4.71H-9.27a4.044,4.044,0,0,1-1.035,2.3,3.121,3.121,0,0,1-2.355.855,3.009,3.009,0,0,1-1.68-.45,3.361,3.361,0,0,1-1.1-1.155A5.29,5.29,0,0,1-16.02-5.97a8.426,8.426,0,0,1-.18-1.71,8.787,8.787,0,0,1,.18-1.755,5.183,5.183,0,0,1,.615-1.62,3.7,3.7,0,0,1,1.125-1.2,2.992,2.992,0,0,1,1.71-.465A2.856,2.856,0,0,1-9.42-10.05ZM1.02-7.74A9.308,9.308,0,0,1,1.2-9.57a4.669,4.669,0,0,1,.615-1.59A3.454,3.454,0,0,1,2.97-12.285a3.428,3.428,0,0,1,1.8-.435,3.51,3.51,0,0,1,1.815.435,3.411,3.411,0,0,1,1.17,1.125A4.669,4.669,0,0,1,8.37-9.57a9.308,9.308,0,0,1,.18,1.83,9.084,9.084,0,0,1-.18,1.815,4.835,4.835,0,0,1-.615,1.59A3.238,3.238,0,0,1,6.585-3.21a3.61,3.61,0,0,1-1.815.42,3.526,3.526,0,0,1-1.8-.42A3.276,3.276,0,0,1,1.815-4.335,4.835,4.835,0,0,1,1.2-5.925,9.084,9.084,0,0,1,1.02-7.74Zm-4.26,0a9.4,9.4,0,0,0,.57,3.36A7.289,7.289,0,0,0-1.05-1.815,7.087,7.087,0,0,0,1.47-.18a9.066,9.066,0,0,0,3.3.57A9.187,9.187,0,0,0,8.085-.18,7.06,7.06,0,0,0,10.62-1.815,7.289,7.289,0,0,0,12.24-4.38a9.4,9.4,0,0,0,.57-3.36,9.521,9.521,0,0,0-.57-3.375,7.263,7.263,0,0,0-1.62-2.58,7.23,7.23,0,0,0-2.535-1.65A8.976,8.976,0,0,0,4.77-15.93a8.858,8.858,0,0,0-3.3.585,7.259,7.259,0,0,0-2.52,1.65,7.263,7.263,0,0,0-1.62,2.58A9.521,9.521,0,0,0-3.24-7.74Zm18.93-7.77V0h4.26V-9a4.384,4.384,0,0,1,.33-1.845,2.979,2.979,0,0,1,.8-1.08,2.638,2.638,0,0,1,.96-.51,3.192,3.192,0,0,1,.8-.135,2.829,2.829,0,0,1,1.545.345,1.915,1.915,0,0,1,.75.915,3.831,3.831,0,0,1,.255,1.245q.03.675.03,1.365V0h4.26V-8.64a9.66,9.66,0,0,1,.1-1.425,3.6,3.6,0,0,1,.42-1.26,2.5,2.5,0,0,1,.87-.9,2.725,2.725,0,0,1,1.455-.345,2.875,2.875,0,0,1,1.425.3,2,2,0,0,1,.8.81,3.12,3.12,0,0,1,.33,1.2q.06.69.06,1.47V0h4.26V-10.38a7,7,0,0,0-.42-2.565A4.4,4.4,0,0,0,37.8-14.67a4.59,4.59,0,0,0-1.8-.96,8.272,8.272,0,0,0-2.28-.3,4.985,4.985,0,0,0-2.8.78,6.6,6.6,0,0,0-1.875,1.8,3.772,3.772,0,0,0-1.845-2.01,6.243,6.243,0,0,0-2.685-.57,5.485,5.485,0,0,0-2.715.66,6.066,6.066,0,0,0-2.025,1.86h-.06v-2.1Zm27.18,0V0h4.26V-9a4.384,4.384,0,0,1,.33-1.845,2.979,2.979,0,0,1,.795-1.08,2.638,2.638,0,0,1,.96-.51,3.192,3.192,0,0,1,.8-.135,2.829,2.829,0,0,1,1.545.345,1.915,1.915,0,0,1,.75.915,3.831,3.831,0,0,1,.255,1.245q.03.675.03,1.365V0h4.26V-8.64a9.661,9.661,0,0,1,.1-1.425,3.6,3.6,0,0,1,.42-1.26,2.5,2.5,0,0,1,.87-.9A2.725,2.725,0,0,1,59.7-12.57a2.875,2.875,0,0,1,1.425.3,2,2,0,0,1,.8.81,3.12,3.12,0,0,1,.33,1.2q.06.69.06,1.47V0h4.26V-10.38a7,7,0,0,0-.42-2.565,4.4,4.4,0,0,0-1.17-1.725,4.59,4.59,0,0,0-1.8-.96,8.272,8.272,0,0,0-2.28-.3,4.985,4.985,0,0,0-2.8.78,6.6,6.6,0,0,0-1.875,1.8,3.772,3.772,0,0,0-1.845-2.01,6.243,6.243,0,0,0-2.685-.57,5.485,5.485,0,0,0-2.715.66,6.066,6.066,0,0,0-2.025,1.86h-.06v-2.1Zm31.44-2.4v-3.51H70.05v3.51Zm-4.26,2.4V0h4.26V-15.51Zm13.02,0v-4.65H78.81v4.65H76.23v2.85h2.58v9.15a3.963,3.963,0,0,0,.39,1.89A2.779,2.779,0,0,0,80.265-.51a4.422,4.422,0,0,0,1.56.525A12.436,12.436,0,0,0,83.7.15q.63,0,1.29-.03A10.137,10.137,0,0,0,86.19,0V-3.3a5.968,5.968,0,0,1-.63.09q-.33.03-.69.03a2.085,2.085,0,0,1-1.44-.36,2.085,2.085,0,0,1-.36-1.44v-7.68h3.12v-2.85Z" transform="translate(821 2907)" fill="#989898"/>
    <path id="Контур_30" data-name="Контур 30" d="M-42.84-10.02v3.66h9.03v-3.66Zm21.51-2.64V0h4.26V-12.66h2.94v-2.85h-2.94v-.93a1.99,1.99,0,0,1,.375-1.365,1.634,1.634,0,0,1,1.245-.4,13.092,13.092,0,0,1,1.56.09V-21.3q-.54-.03-1.11-.075t-1.14-.045a5.227,5.227,0,0,0-3.9,1.32,4.647,4.647,0,0,0-1.29,3.39v1.2h-2.55v2.85Zm9.78-2.85V0h4.26V-15.51Zm4.26-2.4v-3.51h-4.26v3.51Zm3.48-3.51V0H.45V-21.42Zm18.06,12H7.32a4.89,4.89,0,0,1,.195-1.02,3.132,3.132,0,0,1,.57-1.08,3.227,3.227,0,0,1,1.08-.855,3.706,3.706,0,0,1,1.695-.345,2.992,2.992,0,0,1,2.325.84A4.924,4.924,0,0,1,14.25-9.42ZM7.32-6.72H18.51a10.95,10.95,0,0,0-.3-3.45,8.445,8.445,0,0,0-1.365-2.94,6.885,6.885,0,0,0-2.415-2.055,7.375,7.375,0,0,0-3.45-.765,8.033,8.033,0,0,0-3.225.63A7.625,7.625,0,0,0,5.25-13.575a7.6,7.6,0,0,0-1.62,2.6,9.046,9.046,0,0,0-.57,3.24,9.444,9.444,0,0,0,.555,3.3A7.494,7.494,0,0,0,5.19-1.86,6.861,6.861,0,0,0,7.68-.2a8.858,8.858,0,0,0,3.3.585,8.124,8.124,0,0,0,4.5-1.2A7.119,7.119,0,0,0,18.24-4.8H14.49a2.676,2.676,0,0,1-1.14,1.365,3.8,3.8,0,0,1-2.22.645,3.808,3.808,0,0,1-2.76-.93A4.307,4.307,0,0,1,7.32-6.72ZM39.51,0V-21H36.12a4.637,4.637,0,0,1-.75,2.01,4.564,4.564,0,0,1-1.4,1.305,5.6,5.6,0,0,1-1.86.69,10.084,10.084,0,0,1-2.145.165v3.21h5.28V0Z" transform="translate(821 2971)" fill="#fff"/>
  </g>
</svg>
