<svg clip-rule="evenodd" fill-rule="evenodd" height="869" image-rendering="optimizeQuality" shape-rendering="geometricPrecision" text-rendering="geometricPrecision" viewBox="0 0 8652 869.19" width="8650" xmlns="http://www.w3.org/2000/svg"><path d="m1.18 1.18h8647.47v866.83h-8647.47z" fill="none" stroke="#fff" stroke-miterlimit="22.9256" stroke-width="2.36"/><g fill-rule="nonzero"><path d="m1098.04 331.06c-34.04 0-59.4 16.72-59.4 56.96 0 30.31 16.71 51.36 57.57 51.36 34.63 0 58.15-20.41 58.15-52.61 0-36.5-21.05-55.71-56.32-55.71zm-68.09 284.1c-8.06 9.89-16.09 20.39-16.09 32.79 0 24.74 31.55 32.18 74.88 32.18 35.89 0 84.79-2.51 84.79-35.89 0-19.83-23.53-21.06-53.25-22.92l-90.34-6.16zm183.18-282.23c11.12 14.24 22.9 34.05 22.9 62.52 0 68.69-53.85 108.91-131.81 108.91-19.82 0-37.77-2.47-48.9-5.55l-20.43 32.79 60.65 3.71c107.07 6.82 170.17 9.92 170.17 92.2 0 71.19-62.49 111.39-170.17 111.39-112.02 0-154.72-28.47-154.72-77.35 0-27.87 12.38-42.68 34.04-63.14-20.43-8.63-27.22-24.1-27.22-40.81 0-13.63 6.8-26 17.95-37.77 11.14-11.75 23.51-23.52 38.37-37.13-30.32-14.85-53.23-47.03-53.23-92.83 0-71.16 47.04-120.04 141.71-120.04 26.62 0 42.72 2.45 56.95 6.19h120.68v52.59l-56.94 4.33z" fill="#413000"/><path d="m1379.01 220.47c-35.29 0-55.7-20.44-55.7-55.73 0-35.24 20.41-54.44 55.7-54.44 35.89 0 56.32 19.2 56.32 54.44 0 35.29-20.43 55.73-56.32 55.73zm-79.85 371.91v-48.86l31.57-4.32c8.67-1.26 9.9-3.1 9.9-12.41v-181.94c0-6.79-1.85-11.14-8.06-12.99l-33.41-11.77 6.81-50.11h128.11v256.82c0 9.92.6 11.15 9.91 12.4l31.56 4.32v48.86l-176.39.01z" fill="#413000"/><path d="m1720.28 568.4c-26.63 12.98-65.61 24.74-100.9 24.74-73.64 0-101.48-29.68-101.48-99.64v-162.13c0-3.7 0-6.19-4.97-6.19h-43.31v-55.08c54.47-6.2 76.12-33.44 82.93-100.89h58.8v87.9c0 4.32 0 6.19 4.95 6.19h87.26v61.88h-92.21v147.9c0 36.52 8.67 50.74 42.07 50.74 17.35 0 35.28-4.32 50.13-9.9z" fill="#413000"/><path d="m803.31 405.99-282.99-282.95c-16.28-16.3-42.71-16.3-59.01 0l-58.76 58.76 74.53 74.54c17.33-5.86 37.19-1.93 50.99 11.88 13.88 13.89 17.78 33.92 11.78 51.31l71.84 71.84c17.38-6 37.43-2.13 51.31 11.78 19.4 19.39 19.4 50.82 0 70.23-19.41 19.4-50.84 19.4-70.25 0-14.59-14.61-18.2-36.04-10.81-54.02l-67-66.99v176.3c4.73 2.34 9.19 5.47 13.13 9.39 19.4 19.39 19.4 50.82 0 70.24-19.4 19.4-50.84 19.4-70.23 0-19.4-19.42-19.4-50.84 0-70.24 4.8-4.79 10.34-8.41 16.26-10.84v-177.93c-5.92-2.42-11.46-6.02-16.26-10.84-14.69-14.68-18.23-36.25-10.7-54.3l-73.47-73.48-194.02 194.01c-16.31 16.31-16.31 42.74 0 59.04l282.97 282.95c16.29 16.3 42.71 16.3 59.02 0l281.66-281.61c16.3-16.31 16.3-42.75 0-59.05z" fill="#f05133"/></g><path d="m2602.13 1.18h6049.87v866.83h-6695.82z" fill="#f05133"/></svg>